<svg width="1280" height="720" viewBox="0 0 1280 720" fill="none" xmlns="http://www.w3.org/2000/svg">
<g clip-path="url(#clip0)">
<rect width="1280" height="720" fill="#3B4650"/>
<g opacity="0.6">
<path d="M1109.58 301.939C1199.18 259.8 1292.91 349.519 1328.58 399.645V757.5H16.0798C12.2465 697.321 6.87988 586.293 16.0798 623.606C27.5798 670.248 221.58 524.291 296.58 498.96C371.58 473.629 595.58 491.32 763.58 536.354C931.58 581.387 997.58 354.612 1109.58 301.939Z" fill="#002547"/>
<path d="M1162.08 376C1234.08 331.2 1315.41 419.667 1347.08 469.5L1337.58 739H19.5798V615.5C33.2465 622.333 72.1798 643.9 118.58 675.5C164.98 707.1 197.913 632.333 208.58 591C234.08 571.667 311.28 549.5 416.08 615.5C520.88 681.5 649.08 613 700.08 570.5L846.08 458.5C869.746 446.667 932.08 432.3 992.08 469.5C1067.08 516 1072.08 432 1162.08 376Z" fill="#00396E"/>
<path d="M1121.58 719.982C1121.58 721.651 1121.62 723.34 1121.71 725L1164.52 724.148L1213.58 723.171C1213.2 722.087 1212.84 721.069 1212.49 720.099C1209.3 711.157 1207.85 707.073 1207.74 693.004C1207.72 690.966 1206.41 689.163 1204.47 688.517L1198.69 686.59L1204.83 684.542C1206.69 683.922 1207.98 682.23 1208.09 680.274C1208.82 666.714 1210.47 646.513 1212.89 630.485C1213.12 629.032 1212.65 627.556 1211.64 626.491C1210.63 625.422 1209.18 624.882 1207.72 625.022C1192.16 626.523 1177.37 631.805 1164.52 640.283C1157.96 644.605 1151.91 649.76 1146.52 655.666C1130.44 673.278 1121.58 696.118 1121.58 719.982Z" fill="#766E6E"/>
<path d="M1121.58 719.965C1121.58 721.64 1121.62 723.334 1121.71 725L1164.58 724.145V640C1158.02 644.336 1151.96 649.509 1146.55 655.434C1130.45 673.105 1121.58 696.021 1121.58 719.965Z" fill="#5B5555"/>
</g>
<path d="M138 105C138 102.239 140.239 100 143 100H1232C1234.76 100 1237 102.239 1237 105V615C1237 617.761 1234.76 620 1232 620H143C140.239 620 138 617.761 138 615V105Z" fill="black"/>
<path d="M932 100H1232C1234.76 100 1237 102.239 1237 105V615C1237 617.761 1234.76 620 1232 620H932V100Z" fill="black"/>
<path d="M168.498 124.69C168.498 125.17 168.376 125.596 168.132 125.968C167.892 126.336 167.542 126.626 167.082 126.838C166.626 127.046 166.072 127.15 165.42 127.15C164.788 127.15 164.224 127.054 163.728 126.862C163.232 126.67 162.81 126.406 162.462 126.07L163.14 125.308C163.428 125.576 163.758 125.788 164.13 125.944C164.502 126.1 164.936 126.178 165.432 126.178C165.756 126.178 166.056 126.126 166.332 126.022C166.612 125.914 166.836 125.754 167.004 125.542C167.176 125.326 167.262 125.056 167.262 124.732C167.262 124.476 167.21 124.258 167.106 124.078C167.006 123.894 166.828 123.732 166.572 123.592C166.316 123.452 165.958 123.314 165.498 123.178C164.658 122.93 164.004 122.628 163.536 122.272C163.068 121.916 162.834 121.41 162.834 120.754C162.834 120.326 162.952 119.95 163.188 119.626C163.424 119.298 163.748 119.042 164.16 118.858C164.572 118.674 165.046 118.582 165.582 118.582C166.162 118.582 166.668 118.666 167.1 118.834C167.536 119.002 167.928 119.24 168.276 119.548L167.616 120.292C167.32 120.032 167.002 119.844 166.662 119.728C166.326 119.608 165.984 119.548 165.636 119.548C165.196 119.548 164.822 119.644 164.514 119.836C164.206 120.024 164.052 120.312 164.052 120.7C164.052 120.932 164.114 121.13 164.238 121.294C164.362 121.454 164.57 121.602 164.862 121.738C165.158 121.874 165.562 122.018 166.074 122.17C166.518 122.302 166.922 122.464 167.286 122.656C167.654 122.844 167.948 123.1 168.168 123.424C168.388 123.744 168.498 124.166 168.498 124.69ZM171.493 118.018V121.498C171.745 121.178 172.047 120.936 172.399 120.772C172.755 120.608 173.117 120.526 173.485 120.526C174.093 120.526 174.541 120.692 174.829 121.024C175.117 121.352 175.261 121.81 175.261 122.398V127H174.109V122.5C174.109 122.12 174.027 121.846 173.863 121.678C173.703 121.506 173.447 121.42 173.095 121.42C172.759 121.42 172.449 121.526 172.165 121.738C171.885 121.95 171.661 122.18 171.493 122.428V127H170.341V118.144L171.493 118.018ZM182.199 125.548C182.199 125.8 182.239 125.984 182.319 126.1C182.399 126.212 182.525 126.296 182.697 126.352L182.427 127.144C182.139 127.108 181.887 127.022 181.671 126.886C181.459 126.75 181.303 126.542 181.203 126.262C180.975 126.558 180.687 126.78 180.339 126.928C179.991 127.076 179.613 127.15 179.205 127.15C178.569 127.15 178.067 126.97 177.699 126.61C177.331 126.25 177.147 125.776 177.147 125.188C177.147 124.532 177.403 124.028 177.915 123.676C178.431 123.32 179.171 123.142 180.135 123.142H181.053V122.662C181.053 122.226 180.923 121.916 180.663 121.732C180.407 121.548 180.049 121.456 179.589 121.456C179.377 121.456 179.127 121.482 178.839 121.534C178.555 121.586 178.251 121.668 177.927 121.78L177.633 120.94C178.021 120.792 178.395 120.686 178.755 120.622C179.115 120.558 179.451 120.526 179.763 120.526C180.575 120.526 181.183 120.712 181.587 121.084C181.995 121.456 182.199 121.962 182.199 122.602V125.548ZM179.529 126.286C179.821 126.286 180.103 126.21 180.375 126.058C180.651 125.906 180.877 125.694 181.053 125.422V123.892H180.213C179.545 123.892 179.071 124.006 178.791 124.234C178.511 124.458 178.371 124.766 178.371 125.158C178.371 125.91 178.757 126.286 179.529 126.286ZM184.792 127V126.148H185.752V121.528H184.792V120.676H186.634L186.844 122.158C187.084 121.634 187.378 121.232 187.726 120.952C188.078 120.668 188.534 120.526 189.094 120.526C189.278 120.526 189.44 120.54 189.58 120.568C189.724 120.596 189.87 120.632 190.018 120.676L189.838 122.896H188.95V121.576H188.944C187.996 121.576 187.316 122.254 186.904 123.61V126.148H188.188V127H184.792ZM193.133 117.994V127H191.981V118.132L193.133 117.994ZM197.345 120.676L194.621 123.514L197.645 127H196.187L193.241 123.544L195.923 120.676H197.345ZM204.475 124.69C204.475 125.17 204.353 125.596 204.109 125.968C203.869 126.336 203.519 126.626 203.059 126.838C202.603 127.046 202.049 127.15 201.397 127.15C200.765 127.15 200.201 127.054 199.705 126.862C199.209 126.67 198.787 126.406 198.439 126.07L199.117 125.308C199.405 125.576 199.735 125.788 200.107 125.944C200.479 126.1 200.913 126.178 201.409 126.178C201.733 126.178 202.033 126.126 202.309 126.022C202.589 125.914 202.813 125.754 202.981 125.542C203.153 125.326 203.239 125.056 203.239 124.732C203.239 124.476 203.187 124.258 203.083 124.078C202.983 123.894 202.805 123.732 202.549 123.592C202.293 123.452 201.935 123.314 201.475 123.178C200.635 122.93 199.981 122.628 199.513 122.272C199.045 121.916 198.811 121.41 198.811 120.754C198.811 120.326 198.929 119.95 199.165 119.626C199.401 119.298 199.725 119.042 200.137 118.858C200.549 118.674 201.023 118.582 201.559 118.582C202.139 118.582 202.645 118.666 203.077 118.834C203.513 119.002 203.905 119.24 204.253 119.548L203.593 120.292C203.297 120.032 202.979 119.844 202.639 119.728C202.303 119.608 201.961 119.548 201.613 119.548C201.173 119.548 200.799 119.644 200.491 119.836C200.183 120.024 200.029 120.312 200.029 120.7C200.029 120.932 200.091 121.13 200.215 121.294C200.339 121.454 200.547 121.602 200.839 121.738C201.135 121.874 201.539 122.018 202.051 122.17C202.495 122.302 202.899 122.464 203.263 122.656C203.631 122.844 203.925 123.1 204.145 123.424C204.365 123.744 204.475 124.166 204.475 124.69ZM207.47 118.018V121.498C207.722 121.178 208.024 120.936 208.376 120.772C208.732 120.608 209.094 120.526 209.462 120.526C210.07 120.526 210.518 120.692 210.806 121.024C211.094 121.352 211.238 121.81 211.238 122.398V127H210.086V122.5C210.086 122.12 210.004 121.846 209.84 121.678C209.68 121.506 209.424 121.42 209.072 121.42C208.736 121.42 208.426 121.526 208.142 121.738C207.862 121.95 207.638 122.18 207.47 122.428V127H206.318V118.144L207.47 118.018ZM214.443 124.228C214.475 124.924 214.663 125.43 215.007 125.746C215.355 126.062 215.767 126.22 216.243 126.22C216.559 126.22 216.849 126.172 217.113 126.076C217.377 125.98 217.645 125.84 217.917 125.656L218.439 126.382C218.143 126.618 217.801 126.806 217.413 126.946C217.025 127.082 216.623 127.15 216.207 127.15C215.575 127.15 215.037 127.012 214.593 126.736C214.153 126.456 213.817 126.068 213.585 125.572C213.357 125.076 213.243 124.5 213.243 123.844C213.243 123.208 213.357 122.64 213.585 122.14C213.817 121.64 214.143 121.246 214.563 120.958C214.983 120.67 215.483 120.526 216.063 120.526C216.879 120.526 217.521 120.806 217.989 121.366C218.461 121.922 218.697 122.684 218.697 123.652C218.697 123.76 218.695 123.864 218.691 123.964C218.687 124.064 218.681 124.152 218.673 124.228H214.443ZM216.075 121.426C215.623 121.426 215.249 121.586 214.953 121.906C214.657 122.226 214.487 122.72 214.443 123.388H217.587C217.575 122.748 217.435 122.262 217.167 121.93C216.903 121.594 216.539 121.426 216.075 121.426ZM223.307 118.132V125.368C223.307 125.672 223.401 125.888 223.589 126.016C223.777 126.14 224.019 126.202 224.315 126.202C224.503 126.202 224.681 126.184 224.849 126.148C225.021 126.108 225.189 126.054 225.353 125.986L225.653 126.808C225.477 126.9 225.257 126.98 224.993 127.048C224.729 127.116 224.431 127.15 224.099 127.15C223.503 127.15 223.029 126.984 222.677 126.652C222.329 126.32 222.155 125.864 222.155 125.284V119.008H220.229V118.132H223.307ZM230.502 118.132V125.368C230.502 125.672 230.596 125.888 230.784 126.016C230.972 126.14 231.214 126.202 231.51 126.202C231.698 126.202 231.876 126.184 232.044 126.148C232.216 126.108 232.384 126.054 232.548 125.986L232.848 126.808C232.672 126.9 232.452 126.98 232.188 127.048C231.924 127.116 231.626 127.15 231.294 127.15C230.698 127.15 230.224 126.984 229.872 126.652C229.524 126.32 229.35 125.864 229.35 125.284V119.008H227.424V118.132H230.502ZM166.296 134.582C166.844 134.582 167.304 134.652 167.676 134.792C168.052 134.932 168.404 135.136 168.732 135.404L168.09 136.16C167.834 135.948 167.562 135.794 167.274 135.698C166.986 135.598 166.684 135.548 166.368 135.548C165.932 135.548 165.53 135.654 165.162 135.866C164.794 136.078 164.498 136.426 164.274 136.91C164.05 137.394 163.938 138.044 163.938 138.86C163.938 139.656 164.044 140.296 164.256 140.78C164.472 141.26 164.762 141.61 165.126 141.83C165.494 142.046 165.904 142.154 166.356 142.154C166.808 142.154 167.182 142.084 167.478 141.944C167.778 141.8 168.038 141.636 168.258 141.452L168.852 142.214C168.592 142.47 168.254 142.69 167.838 142.874C167.426 143.058 166.922 143.15 166.326 143.15C165.642 143.15 165.026 142.986 164.478 142.658C163.934 142.33 163.502 141.848 163.182 141.212C162.862 140.572 162.702 139.788 162.702 138.86C162.702 137.932 162.864 137.15 163.188 136.514C163.516 135.878 163.952 135.398 164.496 135.074C165.044 134.746 165.644 134.582 166.296 134.582ZM172.807 136.526C173.711 136.526 174.397 136.826 174.865 137.426C175.337 138.026 175.573 138.828 175.573 139.832C175.573 140.484 175.465 141.06 175.249 141.56C175.037 142.06 174.725 142.45 174.313 142.73C173.901 143.01 173.395 143.15 172.795 143.15C171.891 143.15 171.201 142.85 170.725 142.25C170.253 141.65 170.017 140.848 170.017 139.844C170.017 139.188 170.123 138.612 170.335 138.116C170.551 137.616 170.865 137.226 171.277 136.946C171.693 136.666 172.203 136.526 172.807 136.526ZM172.807 137.444C172.287 137.444 171.895 137.64 171.631 138.032C171.367 138.42 171.235 139.024 171.235 139.844C171.235 140.656 171.365 141.258 171.625 141.65C171.885 142.038 172.275 142.232 172.795 142.232C173.315 142.232 173.705 142.038 173.965 141.65C174.225 141.258 174.355 140.652 174.355 139.832C174.355 139.016 174.225 138.414 173.965 138.026C173.705 137.638 173.319 137.444 172.807 137.444ZM180.477 136.526C181.037 136.526 181.485 136.664 181.821 136.94C182.157 137.212 182.399 137.596 182.547 138.092C182.695 138.584 182.769 139.164 182.769 139.832C182.769 140.472 182.679 141.042 182.499 141.542C182.319 142.042 182.049 142.436 181.689 142.724C181.329 143.008 180.877 143.15 180.333 143.15C179.653 143.15 179.105 142.91 178.689 142.43V145.424L177.537 145.562V136.676H178.527L178.611 137.528C179.099 136.86 179.721 136.526 180.477 136.526ZM180.183 137.432C179.855 137.432 179.565 137.532 179.313 137.732C179.061 137.928 178.853 138.152 178.689 138.404V141.464C178.849 141.7 179.045 141.886 179.277 142.022C179.509 142.154 179.767 142.22 180.051 142.22C180.547 142.22 180.921 142.028 181.173 141.644C181.425 141.256 181.551 140.652 181.551 139.832C181.551 139.012 181.439 138.408 181.215 138.02C180.991 137.628 180.647 137.432 180.183 137.432ZM190.114 136.676L187.906 143.036C187.754 143.484 187.558 143.888 187.318 144.248C187.078 144.612 186.768 144.908 186.388 145.136C186.012 145.364 185.538 145.506 184.966 145.562L184.804 144.668C185.236 144.6 185.578 144.496 185.83 144.356C186.086 144.216 186.286 144.034 186.43 143.81C186.578 143.586 186.71 143.316 186.826 143H186.436L184.258 136.676H185.488L187.21 142.16L188.926 136.676H190.114ZM191.987 143V142.148H192.947V137.528H191.987V136.676H193.829L194.039 138.158C194.279 137.634 194.573 137.232 194.921 136.952C195.273 136.668 195.729 136.526 196.289 136.526C196.473 136.526 196.635 136.54 196.775 136.568C196.919 136.596 197.065 136.632 197.213 136.676L197.033 138.896H196.145V137.576H196.139C195.191 137.576 194.511 138.254 194.099 139.61V142.148H195.383V143H191.987ZM201.577 133.652C201.817 133.652 202.009 133.726 202.153 133.874C202.301 134.022 202.375 134.202 202.375 134.414C202.375 134.634 202.301 134.82 202.153 134.972C202.009 135.12 201.817 135.194 201.577 135.194C201.341 135.194 201.149 135.12 201.001 134.972C200.857 134.82 200.785 134.634 200.785 134.414C200.785 134.202 200.857 134.022 201.001 133.874C201.149 133.726 201.341 133.652 201.577 133.652ZM202.435 136.676V142.124H204.193V143H199.357V142.124H201.283V137.552H199.417V136.676H202.435ZM211.538 135.944L211.874 136.964C211.61 137.048 211.326 137.102 211.022 137.126C210.722 137.15 210.39 137.162 210.026 137.162C210.774 137.498 211.148 138.03 211.148 138.758C211.148 139.382 210.932 139.896 210.5 140.3C210.072 140.704 209.478 140.906 208.718 140.906C208.518 140.906 208.348 140.898 208.208 140.882C208.068 140.862 207.934 140.832 207.806 140.792C207.602 140.936 207.5 141.128 207.5 141.368C207.5 141.508 207.556 141.628 207.668 141.728C207.78 141.824 207.998 141.872 208.322 141.872H209.444C209.88 141.872 210.268 141.948 210.608 142.1C210.952 142.252 211.222 142.46 211.418 142.724C211.614 142.984 211.712 143.278 211.712 143.606C211.712 144.234 211.444 144.716 210.908 145.052C210.376 145.392 209.616 145.562 208.628 145.562C207.932 145.562 207.384 145.49 206.984 145.346C206.588 145.202 206.306 144.988 206.138 144.704C205.974 144.42 205.892 144.064 205.892 143.636H206.93C206.93 143.872 206.976 144.066 207.068 144.218C207.16 144.374 207.328 144.488 207.572 144.56C207.816 144.636 208.168 144.674 208.628 144.674C209.308 144.674 209.798 144.59 210.098 144.422C210.398 144.254 210.548 144.008 210.548 143.684C210.548 143.4 210.422 143.184 210.17 143.036C209.918 142.892 209.596 142.82 209.204 142.82H208.094C207.526 142.82 207.108 142.7 206.84 142.46C206.576 142.22 206.444 141.94 206.444 141.62C206.444 141.176 206.676 140.802 207.14 140.498C206.424 140.122 206.066 139.536 206.066 138.74C206.066 138.308 206.174 137.926 206.39 137.594C206.61 137.258 206.914 136.996 207.302 136.808C207.69 136.62 208.136 136.526 208.64 136.526C209.164 136.526 209.594 136.502 209.93 136.454C210.266 136.406 210.556 136.338 210.8 136.25C211.044 136.162 211.29 136.06 211.538 135.944ZM208.646 137.342C208.17 137.342 207.816 137.474 207.584 137.738C207.356 137.998 207.242 138.332 207.242 138.74C207.242 139.156 207.36 139.494 207.596 139.754C207.832 140.014 208.19 140.144 208.67 140.144C209.094 140.144 209.418 140.02 209.642 139.772C209.866 139.524 209.978 139.176 209.978 138.728C209.978 137.804 209.534 137.342 208.646 137.342ZM214.665 134.018V137.498C214.917 137.178 215.219 136.936 215.571 136.772C215.927 136.608 216.289 136.526 216.657 136.526C217.265 136.526 217.713 136.692 218.001 137.024C218.289 137.352 218.433 137.81 218.433 138.398V143H217.281V138.5C217.281 138.12 217.199 137.846 217.035 137.678C216.875 137.506 216.619 137.42 216.267 137.42C215.931 137.42 215.621 137.526 215.337 137.738C215.057 137.95 214.833 138.18 214.665 138.428V143H213.513V134.144L214.665 134.018ZM225.845 142.676C225.621 142.82 225.351 142.934 225.035 143.018C224.723 143.106 224.407 143.15 224.087 143.15C223.383 143.15 222.843 142.966 222.467 142.598C222.095 142.23 221.909 141.752 221.909 141.164V137.54H220.475V136.676H221.909V135.248L223.061 135.11V136.676H225.221L225.089 137.54H223.061V141.152C223.061 141.5 223.149 141.762 223.325 141.938C223.505 142.114 223.803 142.202 224.219 142.202C224.451 142.202 224.665 142.176 224.861 142.124C225.061 142.068 225.245 141.994 225.413 141.902L225.845 142.676ZM236.599 138.8C236.599 139.604 236.689 140.304 236.869 140.9C237.049 141.496 237.325 142.046 237.697 142.55C238.073 143.05 238.547 143.564 239.119 144.092L238.495 144.716C237.847 144.184 237.291 143.636 236.827 143.072C236.367 142.508 236.013 141.882 235.765 141.194C235.521 140.502 235.399 139.704 235.399 138.8C235.399 137.896 235.521 137.1 235.765 136.412C236.013 135.72 236.367 135.092 236.827 134.528C237.291 133.964 237.847 133.416 238.495 132.884L239.119 133.508C238.547 134.032 238.075 134.544 237.703 135.044C237.331 135.544 237.053 136.094 236.869 136.694C236.689 137.29 236.599 137.992 236.599 138.8ZM245.444 134.582C245.992 134.582 246.452 134.652 246.824 134.792C247.2 134.932 247.552 135.136 247.88 135.404L247.238 136.16C246.982 135.948 246.71 135.794 246.422 135.698C246.134 135.598 245.832 135.548 245.516 135.548C245.08 135.548 244.678 135.654 244.31 135.866C243.942 136.078 243.646 136.426 243.422 136.91C243.198 137.394 243.086 138.044 243.086 138.86C243.086 139.656 243.192 140.296 243.404 140.78C243.62 141.26 243.91 141.61 244.274 141.83C244.642 142.046 245.052 142.154 245.504 142.154C245.956 142.154 246.33 142.084 246.626 141.944C246.926 141.8 247.186 141.636 247.406 141.452L248 142.214C247.74 142.47 247.402 142.69 246.986 142.874C246.574 143.058 246.07 143.15 245.474 143.15C244.79 143.15 244.174 142.986 243.626 142.658C243.082 142.33 242.65 141.848 242.33 141.212C242.01 140.572 241.85 139.788 241.85 138.86C241.85 137.932 242.012 137.15 242.336 136.514C242.664 135.878 243.1 135.398 243.644 135.074C244.192 134.746 244.792 134.582 245.444 134.582ZM252.898 138.8C252.898 137.992 252.806 137.29 252.622 136.694C252.442 136.094 252.166 135.544 251.794 135.044C251.422 134.544 250.95 134.032 250.378 133.508L251.002 132.884C251.65 133.416 252.204 133.964 252.664 134.528C253.128 135.092 253.482 135.72 253.726 136.412C253.974 137.1 254.098 137.896 254.098 138.8C254.098 139.704 253.974 140.502 253.726 141.194C253.482 141.882 253.128 142.508 252.664 143.072C252.204 143.636 251.65 144.184 251.002 144.716L250.378 144.092C250.95 143.564 251.422 143.05 251.794 142.55C252.17 142.046 252.448 141.496 252.628 140.9C252.808 140.304 252.898 139.604 252.898 138.8ZM266.52 143.15C265.508 143.15 264.708 142.792 264.12 142.076C263.532 141.36 263.238 140.288 263.238 138.86C263.238 137.912 263.402 137.122 263.73 136.49C264.062 135.854 264.496 135.378 265.032 135.062C265.568 134.742 266.144 134.582 266.76 134.582C267.308 134.582 267.764 134.662 268.128 134.822C268.496 134.982 268.842 135.212 269.166 135.512L268.47 136.232C267.978 135.776 267.414 135.548 266.778 135.548C266.386 135.548 266.016 135.652 265.668 135.86C265.32 136.068 265.038 136.414 264.822 136.898C264.606 137.382 264.498 138.036 264.498 138.86C264.498 140.04 264.676 140.89 265.032 141.41C265.388 141.926 265.912 142.184 266.604 142.184C267.132 142.184 267.626 142.058 268.086 141.806V139.388H266.556L266.418 138.44H269.256V142.412C268.876 142.624 268.47 142.8 268.038 142.94C267.61 143.08 267.104 143.15 266.52 143.15ZM271.136 143V142.148H272.096V137.528H271.136V136.676H272.978L273.188 138.158C273.428 137.634 273.722 137.232 274.07 136.952C274.422 136.668 274.878 136.526 275.438 136.526C275.622 136.526 275.784 136.54 275.924 136.568C276.068 136.596 276.214 136.632 276.362 136.676L276.182 138.896H275.294V137.576H275.288C274.34 137.576 273.66 138.254 273.248 139.61V142.148H274.532V143H271.136ZM279.201 140.228C279.233 140.924 279.421 141.43 279.765 141.746C280.113 142.062 280.525 142.22 281.001 142.22C281.317 142.22 281.607 142.172 281.871 142.076C282.135 141.98 282.403 141.84 282.675 141.656L283.197 142.382C282.901 142.618 282.559 142.806 282.171 142.946C281.783 143.082 281.381 143.15 280.965 143.15C280.333 143.15 279.795 143.012 279.351 142.736C278.911 142.456 278.575 142.068 278.343 141.572C278.115 141.076 278.001 140.5 278.001 139.844C278.001 139.208 278.115 138.64 278.343 138.14C278.575 137.64 278.901 137.246 279.321 136.958C279.741 136.67 280.241 136.526 280.821 136.526C281.637 136.526 282.279 136.806 282.747 137.366C283.219 137.922 283.455 138.684 283.455 139.652C283.455 139.76 283.453 139.864 283.449 139.964C283.445 140.064 283.439 140.152 283.431 140.228H279.201ZM280.833 137.426C280.381 137.426 280.007 137.586 279.711 137.906C279.415 138.226 279.245 138.72 279.201 139.388H282.345C282.333 138.748 282.193 138.262 281.925 137.93C281.661 137.594 281.297 137.426 280.833 137.426ZM286.396 140.228C286.428 140.924 286.616 141.43 286.96 141.746C287.308 142.062 287.72 142.22 288.196 142.22C288.512 142.22 288.802 142.172 289.066 142.076C289.33 141.98 289.598 141.84 289.87 141.656L290.392 142.382C290.096 142.618 289.754 142.806 289.366 142.946C288.978 143.082 288.576 143.15 288.16 143.15C287.528 143.15 286.99 143.012 286.546 142.736C286.106 142.456 285.77 142.068 285.538 141.572C285.31 141.076 285.196 140.5 285.196 139.844C285.196 139.208 285.31 138.64 285.538 138.14C285.77 137.64 286.096 137.246 286.516 136.958C286.936 136.67 287.436 136.526 288.016 136.526C288.832 136.526 289.474 136.806 289.942 137.366C290.414 137.922 290.65 138.684 290.65 139.652C290.65 139.76 290.648 139.864 290.644 139.964C290.64 140.064 290.634 140.152 290.626 140.228H286.396ZM288.028 137.426C287.576 137.426 287.202 137.586 286.906 137.906C286.61 138.226 286.44 138.72 286.396 139.388H289.54C289.528 138.748 289.388 138.262 289.12 137.93C288.856 137.594 288.492 137.426 288.028 137.426ZM292.662 143V136.676H293.652L293.736 137.528C293.996 137.204 294.312 136.956 294.684 136.784C295.06 136.612 295.434 136.526 295.806 136.526C296.414 136.526 296.862 136.692 297.15 137.024C297.438 137.352 297.582 137.81 297.582 138.398V143H296.43V139.106C296.43 138.706 296.406 138.382 296.358 138.134C296.314 137.886 296.22 137.706 296.076 137.594C295.932 137.478 295.714 137.42 295.422 137.42C295.078 137.42 294.766 137.526 294.486 137.738C294.206 137.95 293.982 138.178 293.814 138.422V143H292.662ZM302.071 142.232C302.531 142.232 302.893 142.148 303.157 141.98C303.425 141.812 303.559 141.584 303.559 141.296C303.559 141.112 303.523 140.956 303.451 140.828C303.383 140.696 303.239 140.576 303.019 140.468C302.803 140.356 302.475 140.244 302.035 140.132C301.603 140.024 301.227 139.898 300.907 139.754C300.591 139.61 300.345 139.422 300.169 139.19C299.997 138.958 299.911 138.658 299.911 138.29C299.911 137.754 300.135 137.326 300.583 137.006C301.031 136.686 301.625 136.526 302.365 136.526C302.885 136.526 303.337 136.596 303.721 136.736C304.105 136.872 304.433 137.04 304.705 137.24L304.213 137.99C303.969 137.83 303.701 137.698 303.409 137.594C303.121 137.486 302.781 137.432 302.389 137.432C301.921 137.432 301.587 137.504 301.387 137.648C301.191 137.788 301.093 137.974 301.093 138.206C301.093 138.382 301.141 138.528 301.237 138.644C301.337 138.756 301.507 138.86 301.747 138.956C301.987 139.048 302.319 139.152 302.743 139.268C303.155 139.38 303.515 139.512 303.823 139.664C304.131 139.816 304.369 140.016 304.537 140.264C304.709 140.508 304.795 140.83 304.795 141.23C304.795 141.682 304.665 142.05 304.405 142.334C304.145 142.614 303.807 142.82 303.391 142.952C302.979 143.084 302.539 143.15 302.071 143.15C301.495 143.15 300.999 143.066 300.583 142.898C300.171 142.73 299.825 142.524 299.545 142.28L300.181 141.548C300.425 141.752 300.707 141.918 301.027 142.046C301.351 142.17 301.699 142.232 302.071 142.232ZM317.398 134.582C317.946 134.582 318.406 134.652 318.778 134.792C319.154 134.932 319.506 135.136 319.834 135.404L319.192 136.16C318.936 135.948 318.664 135.794 318.376 135.698C318.088 135.598 317.786 135.548 317.47 135.548C317.034 135.548 316.632 135.654 316.264 135.866C315.896 136.078 315.6 136.426 315.376 136.91C315.152 137.394 315.04 138.044 315.04 138.86C315.04 139.656 315.146 140.296 315.358 140.78C315.574 141.26 315.864 141.61 316.228 141.83C316.596 142.046 317.006 142.154 317.458 142.154C317.91 142.154 318.284 142.084 318.58 141.944C318.88 141.8 319.14 141.636 319.36 141.452L319.954 142.214C319.694 142.47 319.356 142.69 318.94 142.874C318.528 143.058 318.024 143.15 317.428 143.15C316.744 143.15 316.128 142.986 315.58 142.658C315.036 142.33 314.604 141.848 314.284 141.212C313.964 140.572 313.804 139.788 313.804 138.86C313.804 137.932 313.966 137.15 314.29 136.514C314.618 135.878 315.054 135.398 315.598 135.074C316.146 134.746 316.746 134.582 317.398 134.582ZM323.909 136.526C324.813 136.526 325.499 136.826 325.967 137.426C326.439 138.026 326.675 138.828 326.675 139.832C326.675 140.484 326.567 141.06 326.351 141.56C326.139 142.06 325.827 142.45 325.415 142.73C325.003 143.01 324.497 143.15 323.897 143.15C322.993 143.15 322.303 142.85 321.827 142.25C321.355 141.65 321.119 140.848 321.119 139.844C321.119 139.188 321.225 138.612 321.437 138.116C321.653 137.616 321.967 137.226 322.379 136.946C322.795 136.666 323.305 136.526 323.909 136.526ZM323.909 137.444C323.389 137.444 322.997 137.64 322.733 138.032C322.469 138.42 322.337 139.024 322.337 139.844C322.337 140.656 322.467 141.258 322.727 141.65C322.987 142.038 323.377 142.232 323.897 142.232C324.417 142.232 324.807 142.038 325.067 141.65C325.327 141.258 325.457 140.652 325.457 139.832C325.457 139.016 325.327 138.414 325.067 138.026C324.807 137.638 324.421 137.444 323.909 137.444ZM328.698 143V142.148H329.658V137.528H328.698V136.676H330.54L330.75 138.158C330.99 137.634 331.284 137.232 331.632 136.952C331.984 136.668 332.44 136.526 333 136.526C333.184 136.526 333.346 136.54 333.486 136.568C333.63 136.596 333.776 136.632 333.924 136.676L333.744 138.896H332.856V137.576H332.85C331.902 137.576 331.222 138.254 330.81 139.61V142.148H332.094V143H328.698ZM338.774 136.526C339.334 136.526 339.782 136.664 340.118 136.94C340.454 137.212 340.696 137.596 340.844 138.092C340.992 138.584 341.066 139.164 341.066 139.832C341.066 140.472 340.976 141.042 340.796 141.542C340.616 142.042 340.346 142.436 339.986 142.724C339.626 143.008 339.174 143.15 338.63 143.15C337.95 143.15 337.402 142.91 336.986 142.43V145.424L335.834 145.562V136.676H336.824L336.908 137.528C337.396 136.86 338.018 136.526 338.774 136.526ZM338.48 137.432C338.152 137.432 337.862 137.532 337.61 137.732C337.358 137.928 337.15 138.152 336.986 138.404V141.464C337.146 141.7 337.342 141.886 337.574 142.022C337.806 142.154 338.064 142.22 338.348 142.22C338.844 142.22 339.218 142.028 339.47 141.644C339.722 141.256 339.848 140.652 339.848 139.832C339.848 139.012 339.736 138.408 339.512 138.02C339.288 137.628 338.944 137.432 338.48 137.432ZM345.495 136.526C346.399 136.526 347.085 136.826 347.553 137.426C348.025 138.026 348.261 138.828 348.261 139.832C348.261 140.484 348.153 141.06 347.937 141.56C347.725 142.06 347.413 142.45 347.001 142.73C346.589 143.01 346.083 143.15 345.483 143.15C344.579 143.15 343.889 142.85 343.413 142.25C342.941 141.65 342.705 140.848 342.705 139.844C342.705 139.188 342.811 138.612 343.023 138.116C343.239 137.616 343.553 137.226 343.965 136.946C344.381 136.666 344.891 136.526 345.495 136.526ZM345.495 137.444C344.975 137.444 344.583 137.64 344.319 138.032C344.055 138.42 343.923 139.024 343.923 139.844C343.923 140.656 344.053 141.258 344.313 141.65C344.573 142.038 344.963 142.232 345.483 142.232C346.003 142.232 346.393 142.038 346.653 141.65C346.913 141.258 347.043 140.652 347.043 139.832C347.043 139.016 346.913 138.414 346.653 138.026C346.393 137.638 346.007 137.444 345.495 137.444ZM350.284 143V142.148H351.244V137.528H350.284V136.676H352.126L352.336 138.158C352.576 137.634 352.87 137.232 353.218 136.952C353.57 136.668 354.026 136.526 354.586 136.526C354.77 136.526 354.932 136.54 355.072 136.568C355.216 136.596 355.362 136.632 355.51 136.676L355.33 138.896H354.442V137.576H354.436C353.488 137.576 352.808 138.254 352.396 139.61V142.148H353.68V143H350.284ZM362.081 141.548C362.081 141.8 362.121 141.984 362.201 142.1C362.281 142.212 362.407 142.296 362.579 142.352L362.309 143.144C362.021 143.108 361.769 143.022 361.553 142.886C361.341 142.75 361.185 142.542 361.085 142.262C360.857 142.558 360.569 142.78 360.221 142.928C359.873 143.076 359.495 143.15 359.087 143.15C358.451 143.15 357.949 142.97 357.581 142.61C357.213 142.25 357.029 141.776 357.029 141.188C357.029 140.532 357.285 140.028 357.797 139.676C358.313 139.32 359.053 139.142 360.017 139.142H360.935V138.662C360.935 138.226 360.805 137.916 360.545 137.732C360.289 137.548 359.931 137.456 359.471 137.456C359.259 137.456 359.009 137.482 358.721 137.534C358.437 137.586 358.133 137.668 357.809 137.78L357.515 136.94C357.903 136.792 358.277 136.686 358.637 136.622C358.997 136.558 359.333 136.526 359.645 136.526C360.457 136.526 361.065 136.712 361.469 137.084C361.877 137.456 362.081 137.962 362.081 138.602V141.548ZM359.411 142.286C359.703 142.286 359.985 142.21 360.257 142.058C360.533 141.906 360.759 141.694 360.935 141.422V139.892H360.095C359.427 139.892 358.953 140.006 358.673 140.234C358.393 140.458 358.253 140.766 358.253 141.158C358.253 141.91 358.639 142.286 359.411 142.286ZM369.751 142.676C369.527 142.82 369.257 142.934 368.941 143.018C368.629 143.106 368.313 143.15 367.993 143.15C367.289 143.15 366.749 142.966 366.373 142.598C366.001 142.23 365.815 141.752 365.815 141.164V137.54H364.381V136.676H365.815V135.248L366.967 135.11V136.676H369.127L368.995 137.54H366.967V141.152C366.967 141.5 367.055 141.762 367.231 141.938C367.411 142.114 367.709 142.202 368.125 142.202C368.357 142.202 368.571 142.176 368.767 142.124C368.967 142.068 369.151 141.994 369.319 141.902L369.751 142.676ZM374.264 133.652C374.504 133.652 374.696 133.726 374.84 133.874C374.988 134.022 375.062 134.202 375.062 134.414C375.062 134.634 374.988 134.82 374.84 134.972C374.696 135.12 374.504 135.194 374.264 135.194C374.028 135.194 373.836 135.12 373.688 134.972C373.544 134.82 373.472 134.634 373.472 134.414C373.472 134.202 373.544 134.022 373.688 133.874C373.836 133.726 374.028 133.652 374.264 133.652ZM375.122 136.676V142.124H376.88V143H372.044V142.124H373.97V137.552H372.104V136.676H375.122ZM381.471 136.526C382.375 136.526 383.061 136.826 383.529 137.426C384.001 138.026 384.237 138.828 384.237 139.832C384.237 140.484 384.129 141.06 383.913 141.56C383.701 142.06 383.389 142.45 382.977 142.73C382.565 143.01 382.059 143.15 381.459 143.15C380.555 143.15 379.865 142.85 379.389 142.25C378.917 141.65 378.681 140.848 378.681 139.844C378.681 139.188 378.787 138.612 378.999 138.116C379.215 137.616 379.529 137.226 379.941 136.946C380.357 136.666 380.867 136.526 381.471 136.526ZM381.471 137.444C380.951 137.444 380.559 137.64 380.295 138.032C380.031 138.42 379.899 139.024 379.899 139.844C379.899 140.656 380.029 141.258 380.289 141.65C380.549 142.038 380.939 142.232 381.459 142.232C381.979 142.232 382.369 142.038 382.629 141.65C382.889 141.258 383.019 140.652 383.019 139.832C383.019 139.016 382.889 138.414 382.629 138.026C382.369 137.638 381.983 137.444 381.471 137.444ZM386.201 143V136.676H387.191L387.275 137.528C387.535 137.204 387.851 136.956 388.223 136.784C388.599 136.612 388.973 136.526 389.345 136.526C389.953 136.526 390.401 136.692 390.689 137.024C390.977 137.352 391.121 137.81 391.121 138.398V143H389.969V139.106C389.969 138.706 389.945 138.382 389.897 138.134C389.853 137.886 389.759 137.706 389.615 137.594C389.471 137.478 389.253 137.42 388.961 137.42C388.617 137.42 388.305 137.526 388.025 137.738C387.745 137.95 387.521 138.178 387.353 138.422V143H386.201ZM394.746 142.04C394.746 141.736 394.85 141.478 395.058 141.266C395.27 141.054 395.53 140.948 395.838 140.948C396.154 140.948 396.418 141.054 396.63 141.266C396.842 141.478 396.948 141.736 396.948 142.04C396.948 142.348 396.842 142.61 396.63 142.826C396.418 143.042 396.154 143.15 395.838 143.15C395.53 143.15 395.27 143.042 395.058 142.826C394.85 142.61 394.746 142.348 394.746 142.04ZM410.817 135.722V143H409.629V135.722H407.085V134.732H413.403L413.277 135.722H410.817ZM417.448 136.526C418.352 136.526 419.038 136.826 419.506 137.426C419.978 138.026 420.214 138.828 420.214 139.832C420.214 140.484 420.106 141.06 419.89 141.56C419.678 142.06 419.366 142.45 418.954 142.73C418.542 143.01 418.036 143.15 417.436 143.15C416.532 143.15 415.842 142.85 415.366 142.25C414.894 141.65 414.658 140.848 414.658 139.844C414.658 139.188 414.764 138.612 414.976 138.116C415.192 137.616 415.506 137.226 415.918 136.946C416.334 136.666 416.844 136.526 417.448 136.526ZM417.448 137.444C416.928 137.444 416.536 137.64 416.272 138.032C416.008 138.42 415.876 139.024 415.876 139.844C415.876 140.656 416.006 141.258 416.266 141.65C416.526 142.038 416.916 142.232 417.436 142.232C417.956 142.232 418.346 142.038 418.606 141.65C418.866 141.258 418.996 140.652 418.996 139.832C418.996 139.016 418.866 138.414 418.606 138.026C418.346 137.638 417.96 137.444 417.448 137.444ZM425.933 133.994L427.085 134.132V143H426.071L425.975 142.19C425.527 142.83 424.931 143.15 424.187 143.15C423.643 143.15 423.193 143.012 422.837 142.736C422.485 142.456 422.223 142.068 422.051 141.572C421.879 141.076 421.793 140.5 421.793 139.844C421.793 139.204 421.891 138.636 422.087 138.14C422.287 137.64 422.571 137.246 422.939 136.958C423.311 136.67 423.759 136.526 424.283 136.526C424.963 136.526 425.513 136.766 425.933 137.246V133.994ZM424.583 137.432C424.087 137.432 423.703 137.63 423.431 138.026C423.163 138.422 423.029 139.028 423.029 139.844C423.029 140.656 423.151 141.258 423.395 141.65C423.643 142.042 423.999 142.238 424.463 142.238C424.795 142.238 425.081 142.144 425.321 141.956C425.565 141.764 425.769 141.54 425.933 141.284V138.194C425.769 137.954 425.571 137.768 425.339 137.636C425.111 137.5 424.859 137.432 424.583 137.432ZM431.839 136.526C432.743 136.526 433.429 136.826 433.897 137.426C434.369 138.026 434.605 138.828 434.605 139.832C434.605 140.484 434.497 141.06 434.281 141.56C434.069 142.06 433.757 142.45 433.345 142.73C432.933 143.01 432.427 143.15 431.827 143.15C430.923 143.15 430.233 142.85 429.757 142.25C429.285 141.65 429.049 140.848 429.049 139.844C429.049 139.188 429.155 138.612 429.367 138.116C429.583 137.616 429.897 137.226 430.309 136.946C430.725 136.666 431.235 136.526 431.839 136.526ZM431.839 137.444C431.319 137.444 430.927 137.64 430.663 138.032C430.399 138.42 430.267 139.024 430.267 139.844C430.267 140.656 430.397 141.258 430.657 141.65C430.917 142.038 431.307 142.232 431.827 142.232C432.347 142.232 432.737 142.038 432.997 141.65C433.257 141.258 433.387 140.652 433.387 139.832C433.387 139.016 433.257 138.414 432.997 138.026C432.737 137.638 432.351 137.444 431.839 137.444ZM438.782 142.232C439.242 142.232 439.604 142.148 439.868 141.98C440.136 141.812 440.27 141.584 440.27 141.296C440.27 141.112 440.234 140.956 440.162 140.828C440.094 140.696 439.95 140.576 439.73 140.468C439.514 140.356 439.186 140.244 438.746 140.132C438.314 140.024 437.938 139.898 437.618 139.754C437.302 139.61 437.056 139.422 436.88 139.19C436.708 138.958 436.622 138.658 436.622 138.29C436.622 137.754 436.846 137.326 437.294 137.006C437.742 136.686 438.336 136.526 439.076 136.526C439.596 136.526 440.048 136.596 440.432 136.736C440.816 136.872 441.144 137.04 441.416 137.24L440.924 137.99C440.68 137.83 440.412 137.698 440.12 137.594C439.832 137.486 439.492 137.432 439.1 137.432C438.632 137.432 438.298 137.504 438.098 137.648C437.902 137.788 437.804 137.974 437.804 138.206C437.804 138.382 437.852 138.528 437.948 138.644C438.048 138.756 438.218 138.86 438.458 138.956C438.698 139.048 439.03 139.152 439.454 139.268C439.866 139.38 440.226 139.512 440.534 139.664C440.842 139.816 441.08 140.016 441.248 140.264C441.42 140.508 441.506 140.83 441.506 141.23C441.506 141.682 441.376 142.05 441.116 142.334C440.856 142.614 440.518 142.82 440.102 142.952C439.69 143.084 439.25 143.15 438.782 143.15C438.206 143.15 437.71 143.066 437.294 142.898C436.882 142.73 436.536 142.524 436.256 142.28L436.892 141.548C437.136 141.752 437.418 141.918 437.738 142.046C438.062 142.17 438.41 142.232 438.782 142.232ZM453.425 136.526C454.329 136.526 455.015 136.826 455.483 137.426C455.955 138.026 456.191 138.828 456.191 139.832C456.191 140.484 456.083 141.06 455.867 141.56C455.655 142.06 455.343 142.45 454.931 142.73C454.519 143.01 454.013 143.15 453.413 143.15C452.509 143.15 451.819 142.85 451.343 142.25C450.871 141.65 450.635 140.848 450.635 139.844C450.635 139.188 450.741 138.612 450.953 138.116C451.169 137.616 451.483 137.226 451.895 136.946C452.311 136.666 452.821 136.526 453.425 136.526ZM453.425 137.444C452.905 137.444 452.513 137.64 452.249 138.032C451.985 138.42 451.853 139.024 451.853 139.844C451.853 140.656 451.983 141.258 452.243 141.65C452.503 142.038 452.893 142.232 453.413 142.232C453.933 142.232 454.323 142.038 454.583 141.65C454.843 141.258 454.973 140.652 454.973 139.832C454.973 139.016 454.843 138.414 454.583 138.026C454.323 137.638 453.937 137.444 453.425 137.444ZM460.368 142.232C460.828 142.232 461.19 142.148 461.454 141.98C461.722 141.812 461.856 141.584 461.856 141.296C461.856 141.112 461.82 140.956 461.748 140.828C461.68 140.696 461.536 140.576 461.316 140.468C461.1 140.356 460.772 140.244 460.332 140.132C459.9 140.024 459.524 139.898 459.204 139.754C458.888 139.61 458.642 139.422 458.466 139.19C458.294 138.958 458.208 138.658 458.208 138.29C458.208 137.754 458.432 137.326 458.88 137.006C459.328 136.686 459.922 136.526 460.662 136.526C461.182 136.526 461.634 136.596 462.018 136.736C462.402 136.872 462.73 137.04 463.002 137.24L462.51 137.99C462.266 137.83 461.998 137.698 461.706 137.594C461.418 137.486 461.078 137.432 460.686 137.432C460.218 137.432 459.884 137.504 459.684 137.648C459.488 137.788 459.39 137.974 459.39 138.206C459.39 138.382 459.438 138.528 459.534 138.644C459.634 138.756 459.804 138.86 460.044 138.956C460.284 139.048 460.616 139.152 461.04 139.268C461.452 139.38 461.812 139.512 462.12 139.664C462.428 139.816 462.666 140.016 462.834 140.264C463.006 140.508 463.092 140.83 463.092 141.23C463.092 141.682 462.962 142.05 462.702 142.334C462.442 142.614 462.104 142.82 461.688 142.952C461.276 143.084 460.836 143.15 460.368 143.15C459.792 143.15 459.296 143.066 458.88 142.898C458.468 142.73 458.122 142.524 457.842 142.28L458.478 141.548C458.722 141.752 459.004 141.918 459.324 142.046C459.648 142.17 459.996 142.232 460.368 142.232ZM476.3 133.994L477.452 134.132V143H476.438L476.342 142.19C475.894 142.83 475.298 143.15 474.554 143.15C474.01 143.15 473.56 143.012 473.204 142.736C472.852 142.456 472.59 142.068 472.418 141.572C472.246 141.076 472.16 140.5 472.16 139.844C472.16 139.204 472.258 138.636 472.454 138.14C472.654 137.64 472.938 137.246 473.306 136.958C473.678 136.67 474.126 136.526 474.65 136.526C475.33 136.526 475.88 136.766 476.3 137.246V133.994ZM474.95 137.432C474.454 137.432 474.07 137.63 473.798 138.026C473.53 138.422 473.396 139.028 473.396 139.844C473.396 140.656 473.518 141.258 473.762 141.65C474.01 142.042 474.366 142.238 474.83 142.238C475.162 142.238 475.448 142.144 475.688 141.956C475.932 141.764 476.136 141.54 476.3 141.284V138.194C476.136 137.954 475.938 137.768 475.706 137.636C475.478 137.5 475.226 137.432 474.95 137.432ZM482.194 133.652C482.434 133.652 482.626 133.726 482.77 133.874C482.918 134.022 482.992 134.202 482.992 134.414C482.992 134.634 482.918 134.82 482.77 134.972C482.626 135.12 482.434 135.194 482.194 135.194C481.958 135.194 481.766 135.12 481.618 134.972C481.474 134.82 481.402 134.634 481.402 134.414C481.402 134.202 481.474 134.022 481.618 133.874C481.766 133.726 481.958 133.652 482.194 133.652ZM483.052 136.676V142.124H484.81V143H479.974V142.124H481.9V137.552H480.034V136.676H483.052ZM486.995 143V142.148H487.955V137.528H486.995V136.676H488.837L489.047 138.158C489.287 137.634 489.581 137.232 489.929 136.952C490.281 136.668 490.737 136.526 491.297 136.526C491.481 136.526 491.643 136.54 491.783 136.568C491.927 136.596 492.073 136.632 492.221 136.676L492.041 138.896H491.153V137.576H491.147C490.199 137.576 489.519 138.254 489.107 139.61V142.148H490.391V143H486.995ZM495.06 140.228C495.092 140.924 495.28 141.43 495.624 141.746C495.972 142.062 496.384 142.22 496.86 142.22C497.176 142.22 497.466 142.172 497.73 142.076C497.994 141.98 498.262 141.84 498.534 141.656L499.056 142.382C498.76 142.618 498.418 142.806 498.03 142.946C497.642 143.082 497.24 143.15 496.824 143.15C496.192 143.15 495.654 143.012 495.21 142.736C494.77 142.456 494.434 142.068 494.202 141.572C493.974 141.076 493.86 140.5 493.86 139.844C493.86 139.208 493.974 138.64 494.202 138.14C494.434 137.64 494.76 137.246 495.18 136.958C495.6 136.67 496.1 136.526 496.68 136.526C497.496 136.526 498.138 136.806 498.606 137.366C499.078 137.922 499.314 138.684 499.314 139.652C499.314 139.76 499.312 139.864 499.308 139.964C499.304 140.064 499.298 140.152 499.29 140.228H495.06ZM496.692 137.426C496.24 137.426 495.866 137.586 495.57 137.906C495.274 138.226 495.104 138.72 495.06 139.388H498.204C498.192 138.748 498.052 138.262 497.784 137.93C497.52 137.594 497.156 137.426 496.692 137.426ZM503.78 133.652C504.02 133.652 504.212 133.726 504.356 133.874C504.504 134.022 504.578 134.202 504.578 134.414C504.578 134.634 504.504 134.82 504.356 134.972C504.212 135.12 504.02 135.194 503.78 135.194C503.544 135.194 503.352 135.12 503.204 134.972C503.06 134.82 502.988 134.634 502.988 134.414C502.988 134.202 503.06 134.022 503.204 133.874C503.352 133.726 503.544 133.652 503.78 133.652ZM504.638 136.676V142.124H506.396V143H501.56V142.124H503.486V137.552H501.62V136.676H504.638ZM513.657 142.676C513.433 142.82 513.163 142.934 512.847 143.018C512.535 143.106 512.219 143.15 511.899 143.15C511.195 143.15 510.655 142.966 510.279 142.598C509.907 142.23 509.721 141.752 509.721 141.164V137.54H508.287V136.676H509.721V135.248L510.873 135.11V136.676H513.033L512.901 137.54H510.873V141.152C510.873 141.5 510.961 141.762 511.137 141.938C511.317 142.114 511.615 142.202 512.031 142.202C512.263 142.202 512.477 142.176 512.673 142.124C512.873 142.068 513.057 141.994 513.225 141.902L513.657 142.676ZM518.182 136.526C519.086 136.526 519.772 136.826 520.24 137.426C520.712 138.026 520.948 138.828 520.948 139.832C520.948 140.484 520.84 141.06 520.624 141.56C520.412 142.06 520.1 142.45 519.688 142.73C519.276 143.01 518.77 143.15 518.17 143.15C517.266 143.15 516.576 142.85 516.1 142.25C515.628 141.65 515.392 140.848 515.392 139.844C515.392 139.188 515.498 138.612 515.71 138.116C515.926 137.616 516.24 137.226 516.652 136.946C517.068 136.666 517.578 136.526 518.182 136.526ZM518.182 137.444C517.662 137.444 517.27 137.64 517.006 138.032C516.742 138.42 516.61 139.024 516.61 139.844C516.61 140.656 516.74 141.258 517 141.65C517.26 142.038 517.65 142.232 518.17 142.232C518.69 142.232 519.08 142.038 519.34 141.65C519.6 141.258 519.73 140.652 519.73 139.832C519.73 139.016 519.6 138.414 519.34 138.026C519.08 137.638 518.694 137.444 518.182 137.444ZM525.126 142.232C525.586 142.232 525.948 142.148 526.212 141.98C526.48 141.812 526.614 141.584 526.614 141.296C526.614 141.112 526.578 140.956 526.506 140.828C526.438 140.696 526.294 140.576 526.074 140.468C525.858 140.356 525.53 140.244 525.09 140.132C524.658 140.024 524.282 139.898 523.962 139.754C523.646 139.61 523.4 139.422 523.224 139.19C523.052 138.958 522.966 138.658 522.966 138.29C522.966 137.754 523.19 137.326 523.638 137.006C524.086 136.686 524.68 136.526 525.42 136.526C525.94 136.526 526.392 136.596 526.776 136.736C527.16 136.872 527.488 137.04 527.76 137.24L527.268 137.99C527.024 137.83 526.756 137.698 526.464 137.594C526.176 137.486 525.836 137.432 525.444 137.432C524.976 137.432 524.642 137.504 524.442 137.648C524.246 137.788 524.148 137.974 524.148 138.206C524.148 138.382 524.196 138.528 524.292 138.644C524.392 138.756 524.562 138.86 524.802 138.956C525.042 139.048 525.374 139.152 525.798 139.268C526.21 139.38 526.57 139.512 526.878 139.664C527.186 139.816 527.424 140.016 527.592 140.264C527.764 140.508 527.85 140.83 527.85 141.23C527.85 141.682 527.72 142.05 527.46 142.334C527.2 142.614 526.862 142.82 526.446 142.952C526.034 143.084 525.594 143.15 525.126 143.15C524.55 143.15 524.054 143.066 523.638 142.898C523.226 142.73 522.88 142.524 522.6 142.28L523.236 141.548C523.48 141.752 523.762 141.918 524.082 142.046C524.406 142.17 524.754 142.232 525.126 142.232ZM537.362 143V142.148H538.322V137.528H537.362V136.676H539.204L539.414 138.158C539.654 137.634 539.948 137.232 540.296 136.952C540.648 136.668 541.104 136.526 541.664 136.526C541.848 136.526 542.01 136.54 542.15 136.568C542.294 136.596 542.44 136.632 542.588 136.676L542.408 138.896H541.52V137.576H541.514C540.566 137.576 539.886 138.254 539.474 139.61V142.148H540.758V143H537.362ZM545.428 140.228C545.46 140.924 545.648 141.43 545.992 141.746C546.34 142.062 546.752 142.22 547.228 142.22C547.544 142.22 547.834 142.172 548.098 142.076C548.362 141.98 548.63 141.84 548.902 141.656L549.424 142.382C549.128 142.618 548.786 142.806 548.398 142.946C548.01 143.082 547.608 143.15 547.192 143.15C546.56 143.15 546.022 143.012 545.578 142.736C545.138 142.456 544.802 142.068 544.57 141.572C544.342 141.076 544.228 140.5 544.228 139.844C544.228 139.208 544.342 138.64 544.57 138.14C544.802 137.64 545.128 137.246 545.548 136.958C545.968 136.67 546.468 136.526 547.048 136.526C547.864 136.526 548.506 136.806 548.974 137.366C549.446 137.922 549.682 138.684 549.682 139.652C549.682 139.76 549.68 139.864 549.676 139.964C549.672 140.064 549.666 140.152 549.658 140.228H545.428ZM547.06 137.426C546.608 137.426 546.234 137.586 545.938 137.906C545.642 138.226 545.472 138.72 545.428 139.388H548.572C548.56 138.748 548.42 138.262 548.152 137.93C547.888 137.594 547.524 137.426 547.06 137.426ZM553.907 142.232C554.367 142.232 554.729 142.148 554.993 141.98C555.261 141.812 555.395 141.584 555.395 141.296C555.395 141.112 555.359 140.956 555.287 140.828C555.219 140.696 555.075 140.576 554.855 140.468C554.639 140.356 554.311 140.244 553.871 140.132C553.439 140.024 553.063 139.898 552.743 139.754C552.427 139.61 552.181 139.422 552.005 139.19C551.833 138.958 551.747 138.658 551.747 138.29C551.747 137.754 551.971 137.326 552.419 137.006C552.867 136.686 553.461 136.526 554.201 136.526C554.721 136.526 555.173 136.596 555.557 136.736C555.941 136.872 556.269 137.04 556.541 137.24L556.049 137.99C555.805 137.83 555.537 137.698 555.245 137.594C554.957 137.486 554.617 137.432 554.225 137.432C553.757 137.432 553.423 137.504 553.223 137.648C553.027 137.788 552.929 137.974 552.929 138.206C552.929 138.382 552.977 138.528 553.073 138.644C553.173 138.756 553.343 138.86 553.583 138.956C553.823 139.048 554.155 139.152 554.579 139.268C554.991 139.38 555.351 139.512 555.659 139.664C555.967 139.816 556.205 140.016 556.373 140.264C556.545 140.508 556.631 140.83 556.631 141.23C556.631 141.682 556.501 142.05 556.241 142.334C555.981 142.614 555.643 142.82 555.227 142.952C554.815 143.084 554.375 143.15 553.907 143.15C553.331 143.15 552.835 143.066 552.419 142.898C552.007 142.73 551.661 142.524 551.381 142.28L552.017 141.548C552.261 141.752 552.543 141.918 552.863 142.046C553.187 142.17 553.535 142.232 553.907 142.232ZM559.818 140.228C559.85 140.924 560.038 141.43 560.382 141.746C560.73 142.062 561.142 142.22 561.618 142.22C561.934 142.22 562.224 142.172 562.488 142.076C562.752 141.98 563.02 141.84 563.292 141.656L563.814 142.382C563.518 142.618 563.176 142.806 562.788 142.946C562.4 143.082 561.998 143.15 561.582 143.15C560.95 143.15 560.412 143.012 559.968 142.736C559.528 142.456 559.192 142.068 558.96 141.572C558.732 141.076 558.618 140.5 558.618 139.844C558.618 139.208 558.732 138.64 558.96 138.14C559.192 137.64 559.518 137.246 559.938 136.958C560.358 136.67 560.858 136.526 561.438 136.526C562.254 136.526 562.896 136.806 563.364 137.366C563.836 137.922 564.072 138.684 564.072 139.652C564.072 139.76 564.07 139.864 564.066 139.964C564.062 140.064 564.056 140.152 564.048 140.228H559.818ZM561.45 137.426C560.998 137.426 560.624 137.586 560.328 137.906C560.032 138.226 559.862 138.72 559.818 139.388H562.962C562.95 138.748 562.81 138.262 562.542 137.93C562.278 137.594 561.914 137.426 561.45 137.426ZM566.144 143V142.148H567.104V137.528H566.144V136.676H567.986L568.196 138.158C568.436 137.634 568.73 137.232 569.078 136.952C569.43 136.668 569.886 136.526 570.446 136.526C570.63 136.526 570.792 136.54 570.932 136.568C571.076 136.596 571.222 136.632 571.37 136.676L571.19 138.896H570.302V137.576H570.296C569.348 137.576 568.668 138.254 568.256 139.61V142.148H569.54V143H566.144ZM578.667 136.676L576.399 143H575.055L572.799 136.676H574.023L575.757 141.998L577.485 136.676H578.667ZM585.136 141.548C585.136 141.8 585.176 141.984 585.256 142.1C585.336 142.212 585.462 142.296 585.634 142.352L585.364 143.144C585.076 143.108 584.824 143.022 584.608 142.886C584.396 142.75 584.24 142.542 584.14 142.262C583.912 142.558 583.624 142.78 583.276 142.928C582.928 143.076 582.55 143.15 582.142 143.15C581.506 143.15 581.004 142.97 580.636 142.61C580.268 142.25 580.084 141.776 580.084 141.188C580.084 140.532 580.34 140.028 580.852 139.676C581.368 139.32 582.108 139.142 583.072 139.142H583.99V138.662C583.99 138.226 583.86 137.916 583.6 137.732C583.344 137.548 582.986 137.456 582.526 137.456C582.314 137.456 582.064 137.482 581.776 137.534C581.492 137.586 581.188 137.668 580.864 137.78L580.57 136.94C580.958 136.792 581.332 136.686 581.692 136.622C582.052 136.558 582.388 136.526 582.7 136.526C583.512 136.526 584.12 136.712 584.524 137.084C584.932 137.456 585.136 137.962 585.136 138.602V141.548ZM582.466 142.286C582.758 142.286 583.04 142.21 583.312 142.058C583.588 141.906 583.814 141.694 583.99 141.422V139.892H583.15C582.482 139.892 582.008 140.006 581.728 140.234C581.448 140.458 581.308 140.766 581.308 141.158C581.308 141.91 581.694 142.286 582.466 142.286ZM591.425 133.994L592.577 134.132V143H591.563L591.467 142.19C591.019 142.83 590.423 143.15 589.679 143.15C589.135 143.15 588.685 143.012 588.329 142.736C587.977 142.456 587.715 142.068 587.543 141.572C587.371 141.076 587.285 140.5 587.285 139.844C587.285 139.204 587.383 138.636 587.579 138.14C587.779 137.64 588.063 137.246 588.431 136.958C588.803 136.67 589.251 136.526 589.775 136.526C590.455 136.526 591.005 136.766 591.425 137.246V133.994ZM590.075 137.432C589.579 137.432 589.195 137.63 588.923 138.026C588.655 138.422 588.521 139.028 588.521 139.844C588.521 140.656 588.643 141.258 588.887 141.65C589.135 142.042 589.491 142.238 589.955 142.238C590.287 142.238 590.573 142.144 590.813 141.956C591.057 141.764 591.261 141.54 591.425 141.284V138.194C591.261 137.954 591.063 137.768 590.831 137.636C590.603 137.5 590.351 137.432 590.075 137.432ZM597.331 136.526C598.235 136.526 598.921 136.826 599.389 137.426C599.861 138.026 600.097 138.828 600.097 139.832C600.097 140.484 599.989 141.06 599.773 141.56C599.561 142.06 599.249 142.45 598.837 142.73C598.425 143.01 597.919 143.15 597.319 143.15C596.415 143.15 595.725 142.85 595.249 142.25C594.777 141.65 594.541 140.848 594.541 139.844C594.541 139.188 594.647 138.612 594.859 138.116C595.075 137.616 595.389 137.226 595.801 136.946C596.217 136.666 596.727 136.526 597.331 136.526ZM597.331 137.444C596.811 137.444 596.419 137.64 596.155 138.032C595.891 138.42 595.759 139.024 595.759 139.844C595.759 140.656 595.889 141.258 596.149 141.65C596.409 142.038 596.799 142.232 597.319 142.232C597.839 142.232 598.229 142.038 598.489 141.65C598.749 141.258 598.879 140.652 598.879 139.832C598.879 139.016 598.749 138.414 598.489 138.026C598.229 137.638 597.843 137.444 597.331 137.444ZM604.274 142.232C604.734 142.232 605.096 142.148 605.36 141.98C605.628 141.812 605.762 141.584 605.762 141.296C605.762 141.112 605.726 140.956 605.654 140.828C605.586 140.696 605.442 140.576 605.222 140.468C605.006 140.356 604.678 140.244 604.238 140.132C603.806 140.024 603.43 139.898 603.11 139.754C602.794 139.61 602.548 139.422 602.372 139.19C602.2 138.958 602.114 138.658 602.114 138.29C602.114 137.754 602.338 137.326 602.786 137.006C603.234 136.686 603.828 136.526 604.568 136.526C605.088 136.526 605.54 136.596 605.924 136.736C606.308 136.872 606.636 137.04 606.908 137.24L606.416 137.99C606.172 137.83 605.904 137.698 605.612 137.594C605.324 137.486 604.984 137.432 604.592 137.432C604.124 137.432 603.79 137.504 603.59 137.648C603.394 137.788 603.296 137.974 603.296 138.206C603.296 138.382 603.344 138.528 603.44 138.644C603.54 138.756 603.71 138.86 603.95 138.956C604.19 139.048 604.522 139.152 604.946 139.268C605.358 139.38 605.718 139.512 606.026 139.664C606.334 139.816 606.572 140.016 606.74 140.264C606.912 140.508 606.998 140.83 606.998 141.23C606.998 141.682 606.868 142.05 606.608 142.334C606.348 142.614 606.01 142.82 605.594 142.952C605.182 143.084 604.742 143.15 604.274 143.15C603.698 143.15 603.202 143.066 602.786 142.898C602.374 142.73 602.028 142.524 601.748 142.28L602.384 141.548C602.628 141.752 602.91 141.918 603.23 142.046C603.554 142.17 603.902 142.232 604.274 142.232ZM610.605 142.04C610.605 141.736 610.709 141.478 610.917 141.266C611.129 141.054 611.389 140.948 611.697 140.948C612.013 140.948 612.277 141.054 612.489 141.266C612.701 141.478 612.807 141.736 612.807 142.04C612.807 142.348 612.701 142.61 612.489 142.826C612.277 143.042 612.013 143.15 611.697 143.15C611.389 143.15 611.129 143.042 610.917 142.826C610.709 142.61 610.605 142.348 610.605 142.04ZM166.152 164.806V166.606C166.636 166.654 167.064 166.768 167.436 166.948C167.812 167.128 168.128 167.334 168.384 167.566L167.718 168.256C167.258 167.836 166.736 167.59 166.152 167.518V170.152C166.576 170.288 166.964 170.462 167.316 170.674C167.672 170.886 167.956 171.156 168.168 171.484C168.384 171.808 168.492 172.212 168.492 172.696C168.492 173.088 168.404 173.454 168.228 173.794C168.052 174.134 167.79 174.42 167.442 174.652C167.098 174.884 166.668 175.034 166.152 175.102V176.854H165.318V175.138C164.746 175.098 164.246 174.966 163.818 174.742C163.394 174.518 163.046 174.272 162.774 174.004L163.428 173.278C163.68 173.53 163.96 173.738 164.268 173.902C164.58 174.066 164.93 174.164 165.318 174.196V171.01C164.59 170.766 164.036 170.46 163.656 170.092C163.276 169.72 163.086 169.256 163.086 168.7C163.086 168.36 163.17 168.04 163.338 167.74C163.506 167.44 163.754 167.188 164.082 166.984C164.414 166.78 164.826 166.654 165.318 166.606V164.806H166.152ZM165.318 167.542C165.002 167.594 164.746 167.714 164.55 167.902C164.358 168.086 164.262 168.336 164.262 168.652C164.262 168.916 164.332 169.142 164.472 169.33C164.616 169.514 164.898 169.694 165.318 169.87V167.542ZM166.152 171.304V174.148C166.912 173.992 167.292 173.524 167.292 172.744C167.292 172.428 167.21 172.156 167.046 171.928C166.882 171.696 166.584 171.488 166.152 171.304ZM170.401 175V174.148H171.361V169.528H170.401V168.676H172.243L172.453 170.158C172.693 169.634 172.987 169.232 173.335 168.952C173.687 168.668 174.143 168.526 174.703 168.526C174.887 168.526 175.049 168.54 175.189 168.568C175.333 168.596 175.479 168.632 175.627 168.676L175.447 170.896H174.559V169.576H174.553C173.605 169.576 172.925 170.254 172.513 171.61V174.148H173.797V175H170.401ZM180.003 168.526C180.907 168.526 181.593 168.826 182.061 169.426C182.533 170.026 182.769 170.828 182.769 171.832C182.769 172.484 182.661 173.06 182.445 173.56C182.233 174.06 181.921 174.45 181.509 174.73C181.097 175.01 180.591 175.15 179.991 175.15C179.087 175.15 178.397 174.85 177.921 174.25C177.449 173.65 177.213 172.848 177.213 171.844C177.213 171.188 177.319 170.612 177.531 170.116C177.747 169.616 178.061 169.226 178.473 168.946C178.889 168.666 179.399 168.526 180.003 168.526ZM180.003 169.444C179.483 169.444 179.091 169.64 178.827 170.032C178.563 170.42 178.431 171.024 178.431 171.844C178.431 172.656 178.561 173.258 178.821 173.65C179.081 174.038 179.471 174.232 179.991 174.232C180.511 174.232 180.901 174.038 181.161 173.65C181.421 173.258 181.551 172.652 181.551 171.832C181.551 171.016 181.421 170.414 181.161 170.026C180.901 169.638 180.515 169.444 180.003 169.444ZM187.198 168.526C188.102 168.526 188.788 168.826 189.256 169.426C189.728 170.026 189.964 170.828 189.964 171.832C189.964 172.484 189.856 173.06 189.64 173.56C189.428 174.06 189.116 174.45 188.704 174.73C188.292 175.01 187.786 175.15 187.186 175.15C186.282 175.15 185.592 174.85 185.116 174.25C184.644 173.65 184.408 172.848 184.408 171.844C184.408 171.188 184.514 170.612 184.726 170.116C184.942 169.616 185.256 169.226 185.668 168.946C186.084 168.666 186.594 168.526 187.198 168.526ZM187.198 169.444C186.678 169.444 186.286 169.64 186.022 170.032C185.758 170.42 185.626 171.024 185.626 171.844C185.626 172.656 185.756 173.258 186.016 173.65C186.276 174.038 186.666 174.232 187.186 174.232C187.706 174.232 188.096 174.038 188.356 173.65C188.616 173.258 188.746 172.652 188.746 171.832C188.746 171.016 188.616 170.414 188.356 170.026C188.096 169.638 187.71 169.444 187.198 169.444ZM197.063 174.676C196.839 174.82 196.569 174.934 196.253 175.018C195.941 175.106 195.625 175.15 195.305 175.15C194.601 175.15 194.061 174.966 193.685 174.598C193.313 174.23 193.127 173.752 193.127 173.164V169.54H191.693V168.676H193.127V167.248L194.279 167.11V168.676H196.439L196.307 169.54H194.279V173.152C194.279 173.5 194.367 173.762 194.543 173.938C194.723 174.114 195.021 174.202 195.437 174.202C195.669 174.202 195.883 174.176 196.079 174.124C196.279 174.068 196.463 173.994 196.631 173.902L197.063 174.676ZM199.483 176.254L198.559 175.84L203.683 165.274L204.595 165.712L199.483 176.254ZM210.572 168.526C210.788 168.526 210.99 168.574 211.178 168.67C211.37 168.766 211.524 168.942 211.64 169.198C211.756 169.45 211.814 169.816 211.814 170.296V175H210.764V170.464C210.764 170.096 210.74 169.832 210.692 169.672C210.648 169.508 210.52 169.426 210.308 169.426C210.132 169.426 209.956 169.48 209.78 169.588C209.608 169.696 209.44 169.876 209.276 170.128V175H208.268V170.464C208.268 170.096 208.244 169.832 208.196 169.672C208.152 169.508 208.024 169.426 207.812 169.426C207.632 169.426 207.456 169.48 207.284 169.588C207.112 169.696 206.944 169.876 206.78 170.128V175H205.73V168.676H206.618L206.69 169.384C206.866 169.14 207.06 168.936 207.272 168.772C207.488 168.608 207.75 168.526 208.058 168.526C208.298 168.526 208.52 168.584 208.724 168.7C208.932 168.816 209.084 169.032 209.18 169.348C209.352 169.104 209.548 168.906 209.768 168.754C209.988 168.602 210.256 168.526 210.572 168.526ZM218.175 173.548C218.175 173.8 218.215 173.984 218.295 174.1C218.375 174.212 218.501 174.296 218.673 174.352L218.403 175.144C218.115 175.108 217.863 175.022 217.647 174.886C217.435 174.75 217.279 174.542 217.179 174.262C216.951 174.558 216.663 174.78 216.315 174.928C215.967 175.076 215.589 175.15 215.181 175.15C214.545 175.15 214.043 174.97 213.675 174.61C213.307 174.25 213.123 173.776 213.123 173.188C213.123 172.532 213.379 172.028 213.891 171.676C214.407 171.32 215.147 171.142 216.111 171.142H217.029V170.662C217.029 170.226 216.899 169.916 216.639 169.732C216.383 169.548 216.025 169.456 215.565 169.456C215.353 169.456 215.103 169.482 214.815 169.534C214.531 169.586 214.227 169.668 213.903 169.78L213.609 168.94C213.997 168.792 214.371 168.686 214.731 168.622C215.091 168.558 215.427 168.526 215.739 168.526C216.551 168.526 217.159 168.712 217.563 169.084C217.971 169.456 218.175 169.962 218.175 170.602V173.548ZM215.505 174.286C215.797 174.286 216.079 174.21 216.351 174.058C216.627 173.906 216.853 173.694 217.029 173.422V171.892H216.189C215.521 171.892 215.047 172.006 214.767 172.234C214.487 172.458 214.347 172.766 214.347 173.158C214.347 173.91 214.733 174.286 215.505 174.286ZM223.163 165.652C223.403 165.652 223.595 165.726 223.739 165.874C223.887 166.022 223.961 166.202 223.961 166.414C223.961 166.634 223.887 166.82 223.739 166.972C223.595 167.12 223.403 167.194 223.163 167.194C222.927 167.194 222.735 167.12 222.587 166.972C222.443 166.82 222.371 166.634 222.371 166.414C222.371 166.202 222.443 166.022 222.587 165.874C222.735 165.726 222.927 165.652 223.163 165.652ZM224.021 168.676V174.124H225.779V175H220.943V174.124H222.868V169.552H221.003V168.676H224.021ZM227.904 175V168.676H228.894L228.978 169.528C229.238 169.204 229.554 168.956 229.926 168.784C230.302 168.612 230.676 168.526 231.048 168.526C231.656 168.526 232.104 168.692 232.392 169.024C232.68 169.352 232.824 169.81 232.824 170.398V175H231.672V171.106C231.672 170.706 231.648 170.382 231.6 170.134C231.556 169.886 231.462 169.706 231.318 169.594C231.174 169.478 230.956 169.42 230.664 169.42C230.32 169.42 230.008 169.526 229.728 169.738C229.448 169.95 229.224 170.178 229.056 170.422V175H227.904ZM235.459 176.254L234.535 175.84L239.659 165.274L240.571 165.712L235.459 176.254Z" fill="white"/>
<line x1="932.5" y1="116.935" x2="932.5" y2="605.057" stroke="white"/>
<line x1="1196" y1="129.881" x2="1222" y2="129.881" stroke="white" stroke-width="2"/>
<path d="M1209 142.835V116.935" stroke="white" stroke-width="2"/>
<path d="M1040.44 296.637C1041.27 296.637 1041.96 296.742 1042.51 296.952C1043.08 297.162 1043.61 297.468 1044.1 297.87L1043.14 299.004C1042.75 298.686 1042.34 298.455 1041.91 298.311C1041.48 298.161 1041.03 298.086 1040.55 298.086C1039.9 298.086 1039.3 298.245 1038.74 298.563C1038.19 298.881 1037.75 299.403 1037.41 300.129C1037.08 300.855 1036.91 301.83 1036.91 303.054C1036.91 304.248 1037.07 305.208 1037.38 305.934C1037.71 306.654 1038.14 307.179 1038.69 307.509C1039.24 307.833 1039.86 307.995 1040.53 307.995C1041.21 307.995 1041.77 307.89 1042.22 307.68C1042.67 307.464 1043.06 307.218 1043.39 306.942L1044.28 308.085C1043.89 308.469 1043.38 308.799 1042.76 309.075C1042.14 309.351 1041.38 309.489 1040.49 309.489C1039.46 309.489 1038.54 309.243 1037.72 308.751C1036.9 308.259 1036.25 307.536 1035.77 306.582C1035.29 305.622 1035.05 304.446 1035.05 303.054C1035.05 301.662 1035.3 300.489 1035.78 299.535C1036.27 298.581 1036.93 297.861 1037.74 297.375C1038.57 296.883 1039.47 296.637 1040.44 296.637ZM1050.21 299.553C1051.57 299.553 1052.6 300.003 1053.3 300.903C1054.01 301.803 1054.36 303.006 1054.36 304.512C1054.36 305.49 1054.2 306.354 1053.87 307.104C1053.56 307.854 1053.09 308.439 1052.47 308.859C1051.85 309.279 1051.09 309.489 1050.19 309.489C1048.84 309.489 1047.8 309.039 1047.09 308.139C1046.38 307.239 1046.03 306.036 1046.03 304.53C1046.03 303.546 1046.18 302.682 1046.5 301.938C1046.83 301.188 1047.3 300.603 1047.92 300.183C1048.54 299.763 1049.3 299.553 1050.21 299.553ZM1050.21 300.93C1049.43 300.93 1048.84 301.224 1048.45 301.812C1048.05 302.394 1047.85 303.3 1047.85 304.53C1047.85 305.748 1048.05 306.651 1048.44 307.239C1048.83 307.821 1049.41 308.112 1050.19 308.112C1050.97 308.112 1051.56 307.821 1051.95 307.239C1052.34 306.651 1052.53 305.742 1052.53 304.512C1052.53 303.288 1052.34 302.385 1051.95 301.803C1051.56 301.221 1050.98 300.93 1050.21 300.93ZM1063.69 299.553C1064.01 299.553 1064.31 299.625 1064.59 299.769C1064.88 299.913 1065.11 300.177 1065.29 300.561C1065.46 300.939 1065.55 301.488 1065.55 302.208V309.264H1063.97V302.46C1063.97 301.908 1063.94 301.512 1063.87 301.272C1063.8 301.026 1063.61 300.903 1063.29 300.903C1063.03 300.903 1062.76 300.984 1062.5 301.146C1062.24 301.308 1061.99 301.578 1061.74 301.956V309.264H1060.23V302.46C1060.23 301.908 1060.19 301.512 1060.12 301.272C1060.06 301.026 1059.86 300.903 1059.55 300.903C1059.28 300.903 1059.01 300.984 1058.75 301.146C1058.5 301.308 1058.24 301.578 1058 301.956V309.264H1056.42V299.778H1057.75L1057.86 300.84C1058.13 300.474 1058.42 300.168 1058.74 299.922C1059.06 299.676 1059.45 299.553 1059.91 299.553C1060.27 299.553 1060.61 299.64 1060.91 299.814C1061.23 299.988 1061.45 300.312 1061.6 300.786C1061.86 300.42 1062.15 300.123 1062.48 299.895C1062.81 299.667 1063.21 299.553 1063.69 299.553ZM1075.09 307.086C1075.09 307.464 1075.15 307.74 1075.27 307.914C1075.39 308.082 1075.58 308.208 1075.84 308.292L1075.43 309.48C1075 309.426 1074.62 309.297 1074.3 309.093C1073.98 308.889 1073.75 308.577 1073.6 308.157C1073.25 308.601 1072.82 308.934 1072.3 309.156C1071.78 309.378 1071.21 309.489 1070.6 309.489C1069.65 309.489 1068.89 309.219 1068.34 308.679C1067.79 308.139 1067.51 307.428 1067.51 306.546C1067.51 305.562 1067.9 304.806 1068.66 304.278C1069.44 303.744 1070.55 303.477 1071.99 303.477H1073.37V302.757C1073.37 302.103 1073.18 301.638 1072.79 301.362C1072.4 301.086 1071.87 300.948 1071.18 300.948C1070.86 300.948 1070.48 300.987 1070.05 301.065C1069.62 301.143 1069.17 301.266 1068.68 301.434L1068.24 300.174C1068.82 299.952 1069.38 299.793 1069.92 299.697C1070.46 299.601 1070.97 299.553 1071.44 299.553C1072.65 299.553 1073.57 299.832 1074.17 300.39C1074.78 300.948 1075.09 301.707 1075.09 302.667V307.086ZM1071.09 308.193C1071.52 308.193 1071.95 308.079 1072.35 307.851C1072.77 307.623 1073.11 307.305 1073.37 306.897V304.602H1072.11C1071.11 304.602 1070.4 304.773 1069.98 305.115C1069.56 305.451 1069.35 305.913 1069.35 306.501C1069.35 307.629 1069.93 308.193 1071.09 308.193ZM1078.89 309.264V299.778H1080.38L1080.5 301.056C1080.89 300.57 1081.37 300.198 1081.92 299.94C1082.49 299.682 1083.05 299.553 1083.61 299.553C1084.52 299.553 1085.19 299.802 1085.62 300.3C1086.05 300.792 1086.27 301.479 1086.27 302.361V309.264H1084.54V303.423C1084.54 302.823 1084.51 302.337 1084.43 301.965C1084.37 301.593 1084.23 301.323 1084.01 301.155C1083.8 300.981 1083.47 300.894 1083.03 300.894C1082.51 300.894 1082.05 301.053 1081.63 301.371C1081.21 301.689 1080.87 302.031 1080.62 302.397V309.264H1078.89ZM1095.32 295.755L1097.05 295.962V309.264H1095.52L1095.38 308.049C1094.71 309.009 1093.81 309.489 1092.7 309.489C1091.88 309.489 1091.21 309.282 1090.67 308.868C1090.15 308.448 1089.75 307.866 1089.49 307.122C1089.24 306.378 1089.11 305.514 1089.11 304.53C1089.11 303.57 1089.25 302.718 1089.55 301.974C1089.85 301.224 1090.27 300.633 1090.83 300.201C1091.38 299.769 1092.06 299.553 1092.84 299.553C1093.86 299.553 1094.69 299.913 1095.32 300.633V295.755ZM1093.29 300.912C1092.55 300.912 1091.97 301.209 1091.56 301.803C1091.16 302.397 1090.96 303.306 1090.96 304.53C1090.96 305.748 1091.14 306.651 1091.51 307.239C1091.88 307.827 1092.42 308.121 1093.11 308.121C1093.61 308.121 1094.04 307.98 1094.4 307.698C1094.77 307.41 1095.07 307.074 1095.32 306.69V302.055C1095.07 301.695 1094.77 301.416 1094.43 301.218C1094.08 301.014 1093.71 300.912 1093.29 300.912ZM1104.18 299.553C1105.53 299.553 1106.56 300.003 1107.26 300.903C1107.97 301.803 1108.32 303.006 1108.32 304.512C1108.32 305.49 1108.16 306.354 1107.84 307.104C1107.52 307.854 1107.05 308.439 1106.43 308.859C1105.82 309.279 1105.06 309.489 1104.16 309.489C1102.8 309.489 1101.77 309.039 1101.05 308.139C1100.34 307.239 1099.99 306.036 1099.99 304.53C1099.99 303.546 1100.15 302.682 1100.47 301.938C1100.79 301.188 1101.26 300.603 1101.88 300.183C1102.5 299.763 1103.27 299.553 1104.18 299.553ZM1104.18 300.93C1103.4 300.93 1102.81 301.224 1102.41 301.812C1102.02 302.394 1101.82 303.3 1101.82 304.53C1101.82 305.748 1102.01 306.651 1102.4 307.239C1102.79 307.821 1103.38 308.112 1104.16 308.112C1104.94 308.112 1105.52 307.821 1105.91 307.239C1106.3 306.651 1106.5 305.742 1106.5 304.512C1106.5 303.288 1106.3 302.385 1105.91 301.803C1105.52 301.221 1104.94 300.93 1104.18 300.93ZM1125.19 296.637C1125.98 296.637 1126.67 296.781 1127.25 297.069C1127.83 297.351 1128.28 297.729 1128.59 298.203C1128.91 298.671 1129.06 299.187 1129.06 299.751C1129.06 300.513 1128.82 301.155 1128.34 301.677C1127.87 302.193 1127.3 302.52 1126.63 302.658C1127.12 302.706 1127.59 302.847 1128.02 303.081C1128.45 303.315 1128.8 303.651 1129.06 304.089C1129.33 304.521 1129.46 305.058 1129.46 305.7C1129.46 306.414 1129.28 307.059 1128.91 307.635C1128.55 308.205 1128.03 308.658 1127.37 308.994C1126.72 309.324 1125.95 309.489 1125.08 309.489C1124.35 309.489 1123.63 309.354 1122.94 309.084C1122.24 308.808 1121.65 308.379 1121.17 307.797L1122.29 306.861C1122.64 307.275 1123.05 307.584 1123.53 307.788C1124.02 307.986 1124.51 308.085 1125.01 308.085C1125.84 308.085 1126.48 307.872 1126.95 307.446C1127.42 307.014 1127.66 306.423 1127.66 305.673C1127.66 304.821 1127.43 304.23 1126.96 303.9C1126.49 303.564 1125.89 303.396 1125.17 303.396H1124.11L1124.32 302.082H1125.06C1125.46 302.082 1125.83 302.007 1126.18 301.857C1126.52 301.707 1126.81 301.479 1127.02 301.173C1127.24 300.867 1127.35 300.477 1127.35 300.003C1127.35 299.355 1127.13 298.86 1126.69 298.518C1126.25 298.17 1125.72 297.996 1125.09 297.996C1124.56 297.996 1124.09 298.092 1123.69 298.284C1123.29 298.47 1122.89 298.752 1122.49 299.13L1121.55 298.104C1122.08 297.6 1122.66 297.231 1123.27 296.997C1123.88 296.757 1124.52 296.637 1125.19 296.637Z" fill="white"/>
<rect x="950.5" y="280.806" width="269" height="43.8276" stroke="white"/>
<path d="M1040.44 235.871C1041.27 235.871 1041.96 235.976 1042.51 236.186C1043.08 236.396 1043.61 236.702 1044.1 237.104L1043.14 238.238C1042.75 237.92 1042.34 237.689 1041.91 237.545C1041.48 237.395 1041.03 237.32 1040.55 237.32C1039.9 237.32 1039.3 237.479 1038.74 237.797C1038.19 238.115 1037.75 238.637 1037.41 239.363C1037.08 240.089 1036.91 241.064 1036.91 242.288C1036.91 243.482 1037.07 244.442 1037.38 245.168C1037.71 245.888 1038.14 246.413 1038.69 246.743C1039.24 247.067 1039.86 247.229 1040.53 247.229C1041.21 247.229 1041.77 247.124 1042.22 246.914C1042.67 246.698 1043.06 246.452 1043.39 246.176L1044.28 247.319C1043.89 247.703 1043.38 248.033 1042.76 248.309C1042.14 248.585 1041.38 248.723 1040.49 248.723C1039.46 248.723 1038.54 248.477 1037.72 247.985C1036.9 247.493 1036.25 246.77 1035.77 245.816C1035.29 244.856 1035.05 243.68 1035.05 242.288C1035.05 240.896 1035.3 239.723 1035.78 238.769C1036.27 237.815 1036.93 237.095 1037.74 236.609C1038.57 236.117 1039.47 235.871 1040.44 235.871ZM1050.21 238.787C1051.57 238.787 1052.6 239.237 1053.3 240.137C1054.01 241.037 1054.36 242.24 1054.36 243.746C1054.36 244.724 1054.2 245.588 1053.87 246.338C1053.56 247.088 1053.09 247.673 1052.47 248.093C1051.85 248.513 1051.09 248.723 1050.19 248.723C1048.84 248.723 1047.8 248.273 1047.09 247.373C1046.38 246.473 1046.03 245.27 1046.03 243.764C1046.03 242.78 1046.18 241.916 1046.5 241.172C1046.83 240.422 1047.3 239.837 1047.92 239.417C1048.54 238.997 1049.3 238.787 1050.21 238.787ZM1050.21 240.164C1049.43 240.164 1048.84 240.458 1048.45 241.046C1048.05 241.628 1047.85 242.534 1047.85 243.764C1047.85 244.982 1048.05 245.885 1048.44 246.473C1048.83 247.055 1049.41 247.346 1050.19 247.346C1050.97 247.346 1051.56 247.055 1051.95 246.473C1052.34 245.885 1052.53 244.976 1052.53 243.746C1052.53 242.522 1052.34 241.619 1051.95 241.037C1051.56 240.455 1050.98 240.164 1050.21 240.164ZM1063.69 238.787C1064.01 238.787 1064.31 238.859 1064.59 239.003C1064.88 239.147 1065.11 239.411 1065.29 239.795C1065.46 240.173 1065.55 240.722 1065.55 241.442V248.498H1063.97V241.694C1063.97 241.142 1063.94 240.746 1063.87 240.506C1063.8 240.26 1063.61 240.137 1063.29 240.137C1063.03 240.137 1062.76 240.218 1062.5 240.38C1062.24 240.542 1061.99 240.812 1061.74 241.19V248.498H1060.23V241.694C1060.23 241.142 1060.19 240.746 1060.12 240.506C1060.06 240.26 1059.86 240.137 1059.55 240.137C1059.28 240.137 1059.01 240.218 1058.75 240.38C1058.5 240.542 1058.24 240.812 1058 241.19V248.498H1056.42V239.012H1057.75L1057.86 240.074C1058.13 239.708 1058.42 239.402 1058.74 239.156C1059.06 238.91 1059.45 238.787 1059.91 238.787C1060.27 238.787 1060.61 238.874 1060.91 239.048C1061.23 239.222 1061.45 239.546 1061.6 240.02C1061.86 239.654 1062.15 239.357 1062.48 239.129C1062.81 238.901 1063.21 238.787 1063.69 238.787ZM1075.09 246.32C1075.09 246.698 1075.15 246.974 1075.27 247.148C1075.39 247.316 1075.58 247.442 1075.84 247.526L1075.43 248.714C1075 248.66 1074.62 248.531 1074.3 248.327C1073.98 248.123 1073.75 247.811 1073.6 247.391C1073.25 247.835 1072.82 248.168 1072.3 248.39C1071.78 248.612 1071.21 248.723 1070.6 248.723C1069.65 248.723 1068.89 248.453 1068.34 247.913C1067.79 247.373 1067.51 246.662 1067.51 245.78C1067.51 244.796 1067.9 244.04 1068.66 243.512C1069.44 242.978 1070.55 242.711 1071.99 242.711H1073.37V241.991C1073.37 241.337 1073.18 240.872 1072.79 240.596C1072.4 240.32 1071.87 240.182 1071.18 240.182C1070.86 240.182 1070.48 240.221 1070.05 240.299C1069.62 240.377 1069.17 240.5 1068.68 240.668L1068.24 239.408C1068.82 239.186 1069.38 239.027 1069.92 238.931C1070.46 238.835 1070.97 238.787 1071.44 238.787C1072.65 238.787 1073.57 239.066 1074.17 239.624C1074.78 240.182 1075.09 240.941 1075.09 241.901V246.32ZM1071.09 247.427C1071.52 247.427 1071.95 247.313 1072.35 247.085C1072.77 246.857 1073.11 246.539 1073.37 246.131V243.836H1072.11C1071.11 243.836 1070.4 244.007 1069.98 244.349C1069.56 244.685 1069.35 245.147 1069.35 245.735C1069.35 246.863 1069.93 247.427 1071.09 247.427ZM1078.89 248.498V239.012H1080.38L1080.5 240.29C1080.89 239.804 1081.37 239.432 1081.92 239.174C1082.49 238.916 1083.05 238.787 1083.61 238.787C1084.52 238.787 1085.19 239.036 1085.62 239.534C1086.05 240.026 1086.27 240.713 1086.27 241.595V248.498H1084.54V242.657C1084.54 242.057 1084.51 241.571 1084.43 241.199C1084.37 240.827 1084.23 240.557 1084.01 240.389C1083.8 240.215 1083.47 240.128 1083.03 240.128C1082.51 240.128 1082.05 240.287 1081.63 240.605C1081.21 240.923 1080.87 241.265 1080.62 241.631V248.498H1078.89ZM1095.32 234.989L1097.05 235.196V248.498H1095.52L1095.38 247.283C1094.71 248.243 1093.81 248.723 1092.7 248.723C1091.88 248.723 1091.21 248.516 1090.67 248.102C1090.15 247.682 1089.75 247.1 1089.49 246.356C1089.24 245.612 1089.11 244.748 1089.11 243.764C1089.11 242.804 1089.25 241.952 1089.55 241.208C1089.85 240.458 1090.27 239.867 1090.83 239.435C1091.38 239.003 1092.06 238.787 1092.84 238.787C1093.86 238.787 1094.69 239.147 1095.32 239.867V234.989ZM1093.29 240.146C1092.55 240.146 1091.97 240.443 1091.56 241.037C1091.16 241.631 1090.96 242.54 1090.96 243.764C1090.96 244.982 1091.14 245.885 1091.51 246.473C1091.88 247.061 1092.42 247.355 1093.11 247.355C1093.61 247.355 1094.04 247.214 1094.4 246.932C1094.77 246.644 1095.07 246.308 1095.32 245.924V241.289C1095.07 240.929 1094.77 240.65 1094.43 240.452C1094.08 240.248 1093.71 240.146 1093.29 240.146ZM1104.18 238.787C1105.53 238.787 1106.56 239.237 1107.26 240.137C1107.97 241.037 1108.32 242.24 1108.32 243.746C1108.32 244.724 1108.16 245.588 1107.84 246.338C1107.52 247.088 1107.05 247.673 1106.43 248.093C1105.82 248.513 1105.06 248.723 1104.16 248.723C1102.8 248.723 1101.77 248.273 1101.05 247.373C1100.34 246.473 1099.99 245.27 1099.99 243.764C1099.99 242.78 1100.15 241.916 1100.47 241.172C1100.79 240.422 1101.26 239.837 1101.88 239.417C1102.5 238.997 1103.27 238.787 1104.18 238.787ZM1104.18 240.164C1103.4 240.164 1102.81 240.458 1102.41 241.046C1102.02 241.628 1101.82 242.534 1101.82 243.764C1101.82 244.982 1102.01 245.885 1102.4 246.473C1102.79 247.055 1103.38 247.346 1104.16 247.346C1104.94 247.346 1105.52 247.055 1105.91 246.473C1106.3 245.885 1106.5 244.976 1106.5 243.746C1106.5 242.522 1106.3 241.619 1105.91 241.037C1105.52 240.455 1104.94 240.164 1104.18 240.164ZM1125.21 235.871C1126.02 235.871 1126.7 236.027 1127.27 236.339C1127.85 236.645 1128.29 237.062 1128.59 237.59C1128.89 238.112 1129.04 238.7 1129.04 239.354C1129.04 239.912 1128.94 240.458 1128.75 240.992C1128.56 241.526 1128.25 242.087 1127.81 242.675C1127.39 243.257 1126.83 243.905 1126.13 244.619C1125.43 245.333 1124.58 246.149 1123.57 247.067H1129.33L1129.12 248.498H1121.6V247.139C1122.75 246.041 1123.69 245.111 1124.42 244.349C1125.15 243.581 1125.72 242.921 1126.13 242.369C1126.54 241.811 1126.83 241.304 1126.99 240.848C1127.16 240.392 1127.24 239.921 1127.24 239.435C1127.24 238.769 1127.05 238.244 1126.67 237.86C1126.3 237.476 1125.78 237.284 1125.11 237.284C1124.53 237.284 1124.04 237.389 1123.66 237.599C1123.27 237.809 1122.89 238.142 1122.5 238.598L1121.35 237.707C1121.84 237.101 1122.39 236.645 1123 236.339C1123.61 236.027 1124.35 235.871 1125.21 235.871Z" fill="white"/>
<rect x="950.5" y="220.04" width="269" height="43.8276" stroke="white"/>
<path d="M1040.44 175.105C1041.27 175.105 1041.96 175.21 1042.51 175.42C1043.08 175.63 1043.61 175.936 1044.1 176.338L1043.14 177.472C1042.75 177.154 1042.34 176.923 1041.91 176.779C1041.48 176.629 1041.03 176.554 1040.55 176.554C1039.9 176.554 1039.3 176.713 1038.74 177.031C1038.19 177.349 1037.75 177.871 1037.41 178.597C1037.08 179.323 1036.91 180.298 1036.91 181.522C1036.91 182.716 1037.07 183.676 1037.38 184.402C1037.71 185.122 1038.14 185.647 1038.69 185.977C1039.24 186.301 1039.86 186.463 1040.53 186.463C1041.21 186.463 1041.77 186.358 1042.22 186.148C1042.67 185.932 1043.06 185.686 1043.39 185.41L1044.28 186.553C1043.89 186.937 1043.38 187.267 1042.76 187.543C1042.14 187.819 1041.38 187.957 1040.49 187.957C1039.46 187.957 1038.54 187.711 1037.72 187.219C1036.9 186.727 1036.25 186.004 1035.77 185.05C1035.29 184.09 1035.05 182.914 1035.05 181.522C1035.05 180.13 1035.3 178.957 1035.78 178.003C1036.27 177.049 1036.93 176.329 1037.74 175.843C1038.57 175.351 1039.47 175.105 1040.44 175.105ZM1050.21 178.021C1051.57 178.021 1052.6 178.471 1053.3 179.371C1054.01 180.271 1054.36 181.474 1054.36 182.98C1054.36 183.958 1054.2 184.822 1053.87 185.572C1053.56 186.322 1053.09 186.907 1052.47 187.327C1051.85 187.747 1051.09 187.957 1050.19 187.957C1048.84 187.957 1047.8 187.507 1047.09 186.607C1046.38 185.707 1046.03 184.504 1046.03 182.998C1046.03 182.014 1046.18 181.15 1046.5 180.406C1046.83 179.656 1047.3 179.071 1047.92 178.651C1048.54 178.231 1049.3 178.021 1050.21 178.021ZM1050.21 179.398C1049.43 179.398 1048.84 179.692 1048.45 180.28C1048.05 180.862 1047.85 181.768 1047.85 182.998C1047.85 184.216 1048.05 185.119 1048.44 185.707C1048.83 186.289 1049.41 186.58 1050.19 186.58C1050.97 186.58 1051.56 186.289 1051.95 185.707C1052.34 185.119 1052.53 184.21 1052.53 182.98C1052.53 181.756 1052.34 180.853 1051.95 180.271C1051.56 179.689 1050.98 179.398 1050.21 179.398ZM1063.69 178.021C1064.01 178.021 1064.31 178.093 1064.59 178.237C1064.88 178.381 1065.11 178.645 1065.29 179.029C1065.46 179.407 1065.55 179.956 1065.55 180.676V187.732H1063.97V180.928C1063.97 180.376 1063.94 179.98 1063.87 179.74C1063.8 179.494 1063.61 179.371 1063.29 179.371C1063.03 179.371 1062.76 179.452 1062.5 179.614C1062.24 179.776 1061.99 180.046 1061.74 180.424V187.732H1060.23V180.928C1060.23 180.376 1060.19 179.98 1060.12 179.74C1060.06 179.494 1059.86 179.371 1059.55 179.371C1059.28 179.371 1059.01 179.452 1058.75 179.614C1058.5 179.776 1058.24 180.046 1058 180.424V187.732H1056.42V178.246H1057.75L1057.86 179.308C1058.13 178.942 1058.42 178.636 1058.74 178.39C1059.06 178.144 1059.45 178.021 1059.91 178.021C1060.27 178.021 1060.61 178.108 1060.91 178.282C1061.23 178.456 1061.45 178.78 1061.6 179.254C1061.86 178.888 1062.15 178.591 1062.48 178.363C1062.81 178.135 1063.21 178.021 1063.69 178.021ZM1075.09 185.554C1075.09 185.932 1075.15 186.208 1075.27 186.382C1075.39 186.55 1075.58 186.676 1075.84 186.76L1075.43 187.948C1075 187.894 1074.62 187.765 1074.3 187.561C1073.98 187.357 1073.75 187.045 1073.6 186.625C1073.25 187.069 1072.82 187.402 1072.3 187.624C1071.78 187.846 1071.21 187.957 1070.6 187.957C1069.65 187.957 1068.89 187.687 1068.34 187.147C1067.79 186.607 1067.51 185.896 1067.51 185.014C1067.51 184.03 1067.9 183.274 1068.66 182.746C1069.44 182.212 1070.55 181.945 1071.99 181.945H1073.37V181.225C1073.37 180.571 1073.18 180.106 1072.79 179.83C1072.4 179.554 1071.87 179.416 1071.18 179.416C1070.86 179.416 1070.48 179.455 1070.05 179.533C1069.62 179.611 1069.17 179.734 1068.68 179.902L1068.24 178.642C1068.82 178.42 1069.38 178.261 1069.92 178.165C1070.46 178.069 1070.97 178.021 1071.44 178.021C1072.65 178.021 1073.57 178.3 1074.17 178.858C1074.78 179.416 1075.09 180.175 1075.09 181.135V185.554ZM1071.09 186.661C1071.52 186.661 1071.95 186.547 1072.35 186.319C1072.77 186.091 1073.11 185.773 1073.37 185.365V183.07H1072.11C1071.11 183.07 1070.4 183.241 1069.98 183.583C1069.56 183.919 1069.35 184.381 1069.35 184.969C1069.35 186.097 1069.93 186.661 1071.09 186.661ZM1078.89 187.732V178.246H1080.38L1080.5 179.524C1080.89 179.038 1081.37 178.666 1081.92 178.408C1082.49 178.15 1083.05 178.021 1083.61 178.021C1084.52 178.021 1085.19 178.27 1085.62 178.768C1086.05 179.26 1086.27 179.947 1086.27 180.829V187.732H1084.54V181.891C1084.54 181.291 1084.51 180.805 1084.43 180.433C1084.37 180.061 1084.23 179.791 1084.01 179.623C1083.8 179.449 1083.47 179.362 1083.03 179.362C1082.51 179.362 1082.05 179.521 1081.63 179.839C1081.21 180.157 1080.87 180.499 1080.62 180.865V187.732H1078.89ZM1095.32 174.223L1097.05 174.43V187.732H1095.52L1095.38 186.517C1094.71 187.477 1093.81 187.957 1092.7 187.957C1091.88 187.957 1091.21 187.75 1090.67 187.336C1090.15 186.916 1089.75 186.334 1089.49 185.59C1089.24 184.846 1089.11 183.982 1089.11 182.998C1089.11 182.038 1089.25 181.186 1089.55 180.442C1089.85 179.692 1090.27 179.101 1090.83 178.669C1091.38 178.237 1092.06 178.021 1092.84 178.021C1093.86 178.021 1094.69 178.381 1095.32 179.101V174.223ZM1093.29 179.38C1092.55 179.38 1091.97 179.677 1091.56 180.271C1091.16 180.865 1090.96 181.774 1090.96 182.998C1090.96 184.216 1091.14 185.119 1091.51 185.707C1091.88 186.295 1092.42 186.589 1093.11 186.589C1093.61 186.589 1094.04 186.448 1094.4 186.166C1094.77 185.878 1095.07 185.542 1095.32 185.158V180.523C1095.07 180.163 1094.77 179.884 1094.43 179.686C1094.08 179.482 1093.71 179.38 1093.29 179.38ZM1104.18 178.021C1105.53 178.021 1106.56 178.471 1107.26 179.371C1107.97 180.271 1108.32 181.474 1108.32 182.98C1108.32 183.958 1108.16 184.822 1107.84 185.572C1107.52 186.322 1107.05 186.907 1106.43 187.327C1105.82 187.747 1105.06 187.957 1104.16 187.957C1102.8 187.957 1101.77 187.507 1101.05 186.607C1100.34 185.707 1099.99 184.504 1099.99 182.998C1099.99 182.014 1100.15 181.15 1100.47 180.406C1100.79 179.656 1101.26 179.071 1101.88 178.651C1102.5 178.231 1103.27 178.021 1104.18 178.021ZM1104.18 179.398C1103.4 179.398 1102.81 179.692 1102.41 180.28C1102.02 180.862 1101.82 181.768 1101.82 182.998C1101.82 184.216 1102.01 185.119 1102.4 185.707C1102.79 186.289 1103.38 186.58 1104.16 186.58C1104.94 186.58 1105.52 186.289 1105.91 185.707C1106.3 185.119 1106.5 184.21 1106.5 182.98C1106.5 181.756 1106.3 180.853 1105.91 180.271C1105.52 179.689 1104.94 179.398 1104.18 179.398ZM1129.76 186.346V187.732H1122.45V186.346H1125.49V177.148L1122.69 178.858L1121.95 177.634L1125.69 175.33H1127.21V186.346H1129.76Z" fill="white"/>
<rect x="950.5" y="159.274" width="269" height="43.8276" stroke="white"/>
<rect x="-1" width="102" height="720" fill="#0F1D32"/>
<line x1="9" y1="108.5" x2="90.6" y2="108.5" stroke="#3B4650"/>
<path d="M70.5664 65.5003C70.5664 66.3001 70.5451 67.109 70.5039 67.9042L50 67.496L26.501 67.0283C26.6823 66.5088 26.8575 66.0213 27.022 65.5566C28.55 61.2727 29.2462 59.3166 29.2995 52.5769C29.3071 51.6004 29.9363 50.7366 30.8626 50.4274L33.6337 49.5042L30.6904 48.5231C29.8007 48.226 29.1822 47.4155 29.132 46.4786C28.7816 39.9827 27.9924 30.3058 26.83 22.6277C26.7234 21.9315 26.9458 21.2246 27.4303 20.7142C27.9147 20.2024 28.6079 19.9434 29.3087 20.0104C36.7598 20.7295 43.8423 23.2599 50 27.3214C53.1398 29.3917 56.0374 31.8612 58.6211 34.6903C66.3236 43.1271 70.5664 54.0684 70.5664 65.5003Z" fill="#766E6E"/>
<path d="M70.5664 65.5003C70.5664 66.3001 70.5451 67.109 70.5039 67.9042L50 67.4959V27.3214C53.1398 29.3917 56.0374 31.8612 58.6211 34.6902C66.3236 43.127 70.5664 54.0684 70.5664 65.5003Z" fill="#5B5555"/>
<path d="M89 67.7854C89 69.0468 87.9762 70.0706 86.7148 70.0706H13.2852C12.0238 70.0706 11 69.0468 11 67.7854C11 66.524 12.0238 65.5002 13.2852 65.5002H86.7148C87.9762 65.5002 89 66.524 89 67.7854Z" fill="#57D9D4"/>
<path d="M89 67.7854C89 69.0468 87.9762 70.0706 86.7148 70.0706H50V65.5002H86.7148C87.9762 65.5002 89 66.524 89 67.7854Z" fill="#26BFBF"/>
<path d="M70.5664 76.926C70.5664 78.1874 69.5427 79.2112 68.2812 79.2112H31.7188C30.4573 79.2112 29.4336 78.1874 29.4336 76.926C29.4336 75.6646 30.4573 74.6409 31.7188 74.6409H68.2812C69.5427 74.6409 70.5664 75.6646 70.5664 76.926Z" fill="#57D9D4"/>
<path d="M70.5664 76.926C70.5664 78.1874 69.5427 79.2112 68.2812 79.2112H50V74.6409H68.2812C69.5427 74.6409 70.5664 75.6646 70.5664 76.926Z" fill="#26BFBF"/>
<path d="M40.8594 88.3518H13.2852C12.0231 88.3518 11 87.3287 11 86.0667C11 84.8047 12.0231 83.7815 13.2852 83.7815H40.8594C42.1214 83.7815 43.1445 84.8047 43.1445 86.0667C43.1445 87.3287 42.1214 88.3518 40.8594 88.3518Z" fill="#57D9D4"/>
<path d="M86.7148 88.3518H59.1406C57.8786 88.3518 56.8555 87.3287 56.8555 86.0667C56.8555 84.8047 57.8786 83.7815 59.1406 83.7815H86.7148C87.9769 83.7815 89 84.8047 89 86.0667C89 87.3287 87.9769 88.3518 86.7148 88.3518Z" fill="#26BFBF"/>
<path d="M50 88.3518C51.2621 88.3518 52.2852 87.3287 52.2852 86.0667C52.2852 84.8046 51.2621 83.7815 50 83.7815C48.7379 83.7815 47.7148 84.8046 47.7148 86.0667C47.7148 87.3287 48.7379 88.3518 50 88.3518Z" fill="#57D9D4"/>
<path d="M52.2852 86.0667C52.2852 87.3281 51.2614 88.3518 50 88.3518V83.7815C51.2614 83.7815 52.2852 84.8053 52.2852 86.0667Z" fill="#26BFBF"/>
<path d="M74.1344 675.479L69.4149 671.885C69.4748 671.331 69.5262 670.683 69.5262 669.998C69.5262 669.312 69.4769 668.665 69.4149 668.11L74.1388 664.515C75.016 663.84 75.2555 662.642 74.6971 661.644L69.7893 653.375C69.2651 652.442 68.1163 651.963 66.9503 652.381L61.3814 654.558C60.3139 653.808 59.1949 653.175 58.0375 652.669L57.1903 646.917C57.0512 645.825 56.0757 645 54.9226 645H45.0813C43.9281 645 42.9548 645.825 42.8178 646.9L41.9685 652.673C40.8474 653.165 39.7457 653.79 38.631 654.562L33.0471 652.379C32.0009 651.985 30.7493 652.427 30.2294 653.356L25.3153 661.635C24.7355 662.59 24.9751 663.829 25.8715 664.521L30.5911 668.115C30.5161 668.817 30.4798 669.427 30.4798 670C30.4798 670.573 30.5162 671.183 30.5911 671.888L25.8672 675.483C24.99 676.16 24.7526 677.358 25.311 678.354L30.2188 686.623C30.743 687.554 31.8811 688.037 33.0578 687.617L38.6267 685.44C39.6921 686.188 40.811 686.821 41.9685 687.329L42.8157 693.079C42.9547 694.175 43.9281 695 45.0834 695H54.9247C56.0779 695 57.0534 694.175 57.1903 693.1L58.0396 687.329C59.1607 686.835 60.2603 686.212 61.3771 685.438L66.961 687.621C67.2305 687.723 67.5108 687.775 67.7997 687.775C68.6297 687.775 69.3935 687.333 69.7786 686.646L74.7078 678.333C75.2555 677.358 75.0159 676.16 74.1344 675.479ZM50.0019 678.333C45.2824 678.333 41.4443 674.596 41.4443 670C41.4443 665.404 45.2824 661.667 50.0019 661.667C54.7214 661.667 58.5595 665.404 58.5595 670C58.5595 674.596 54.7214 678.333 50.0019 678.333Z" fill="white" fill-opacity="0.75"/>
<path d="M50 570C36.1922 570 25 581.192 25 595C25 608.806 36.1922 620 50 620C63.8078 620 75 608.806 75 595C75 581.192 63.8078 570 50 570ZM60.9375 596.562H44.3969L50.8359 603.002C51.4469 603.612 51.4469 604.602 50.8359 605.211C50.2249 605.822 49.2359 605.822 48.6266 605.211L39.7875 596.372C39.4141 595.998 39.2969 595.484 39.3828 595C39.2968 594.516 39.4141 594.002 39.7891 593.627L48.6281 584.787C49.2391 584.177 50.2281 584.177 50.8375 584.787C51.4485 585.398 51.4485 586.388 50.8375 586.997L44.3969 593.438H60.9375C61.8 593.438 62.5 594.138 62.5 595C62.5 595.863 61.8 596.562 60.9375 596.562Z" fill="white" fill-opacity="0.75"/>
<path d="M27.3589 207.091H61.6009V211.511H27.3589V207.091Z" fill="#384949"/>
<path d="M44.48 207.091H61.601V211.511H44.48V207.091Z" fill="#293939"/>
<path d="M27.3589 220.35H61.6009V224.77H27.3589V220.35Z" fill="#384949"/>
<path d="M44.48 220.35H61.601V224.77H44.48V220.35Z" fill="#293939"/>
<path d="M25 197V208.196H63.9598V197H25Z" fill="#4A696F"/>
<path d="M44.48 197H63.9599V208.196H44.48V197Z" fill="#384949"/>
<path d="M29.6416 201.567H31.9244V203.777H29.6416V201.567Z" fill="#9BFCFF"/>
<path d="M34.2073 201.567H36.4901V203.777H34.2073V201.567Z" fill="#9BFCFF"/>
<path d="M38.7729 201.567H41.0558V203.777H38.7729V201.567Z" fill="#9BFCFF"/>
<path d="M47.9041 201.567H59.3181V203.777H47.9041V201.567Z" fill="#293939"/>
<path d="M25 210.406V221.455H63.9598V210.406H25Z" fill="#4A696F"/>
<path d="M44.48 210.406H63.9599V221.455H44.48V210.406Z" fill="#384949"/>
<path d="M29.6416 214.826H31.9244V217.035H29.6416V214.826Z" fill="#9BFCFF"/>
<path d="M34.2073 214.826H36.4901V217.035H34.2073V214.826Z" fill="#9BFCFF"/>
<path d="M38.7729 214.826H41.0558V217.035H38.7729V214.826Z" fill="#9BFCFF"/>
<path d="M47.9041 214.826H59.3181V217.035H47.9041V214.826Z" fill="#293939"/>
<path d="M25 223.665V234.714H63.9598V223.665H25Z" fill="#4A696F"/>
<path d="M44.48 223.665H63.9599V234.714H44.48V223.665Z" fill="#384949"/>
<path d="M29.6416 228.084H31.9244V230.294H29.6416V228.084Z" fill="#9BFCFF"/>
<path d="M34.2073 228.084H36.4901V230.294H34.2073V228.084Z" fill="#9BFCFF"/>
<path d="M38.7729 228.084H41.0558V230.294H38.7729V228.084Z" fill="#9BFCFF"/>
<path d="M47.9041 228.084H59.3181V230.294H47.9041V228.084Z" fill="#293939"/>
<path d="M68.1026 220.758L68.0601 220.799C67.0945 221.734 66.9384 223.184 67.6544 224.31C68.5701 225.75 69.0987 227.444 69.0987 229.255C69.0987 234.472 64.7141 238.717 59.3247 238.717V244.429C67.982 244.429 75 237.636 75 229.255C75 226.326 74.1421 223.59 72.6564 221.27C71.6628 219.719 69.4359 219.468 68.1026 220.758Z" fill="white" fill-opacity="0.75"/>
<path d="M70.4088 239.985C69.2565 241.1 67.3883 241.1 66.2359 239.985C65.0837 238.87 65.0837 237.061 66.2359 235.946L66.2337 235.942C64.4638 237.655 62.0199 238.717 59.3247 238.717V244.429C63.6533 244.429 67.5722 242.731 70.4088 239.985Z" fill="white" fill-opacity="0.75"/>
<path d="M50.5892 237.712C51.5549 236.777 51.711 235.327 50.995 234.201C50.0792 232.761 49.5507 231.067 49.5507 229.255C49.5507 224.038 53.9352 219.794 59.3247 219.794V214.082C50.6674 214.082 43.6494 220.875 43.6494 229.255C43.6494 232.185 44.5072 234.921 45.993 237.241C46.9866 238.792 49.2135 239.043 50.5468 237.753L50.5892 237.712Z" fill="white" fill-opacity="0.75"/>
<path d="M48.2405 218.526C49.3927 217.411 51.261 217.411 52.4133 218.526C53.5656 219.641 53.5656 221.45 52.4133 222.565L52.4172 222.568C54.187 220.855 56.6302 219.794 59.3246 219.794V214.082C54.996 214.082 51.0771 215.78 48.2405 218.526Z" fill="white" fill-opacity="0.75"/>
<path d="M59.3798 211.805L65.0211 215.839C65.8193 216.41 65.8193 217.566 65.0211 218.137L59.3798 222.171C58.4059 222.867 57.0278 222.194 57.0278 221.022V212.953C57.0279 211.781 58.4059 211.108 59.3798 211.805Z" fill="white" fill-opacity="0.75"/>
<path d="M65.0211 215.827L59.3798 211.793C58.4059 211.096 57.0278 211.77 57.0278 212.942V220.058C57.0279 215.904 62.2233 213.827 65.0211 215.827Z" fill="white" fill-opacity="0.75"/>
<path d="M59.2697 246.706L53.6284 242.672C52.8302 242.101 52.8302 240.946 53.6284 240.375L59.2697 236.34C60.2436 235.644 61.6217 236.317 61.6217 237.489V245.558C61.6216 246.73 60.2436 247.403 59.2697 246.706Z" fill="white" fill-opacity="0.75"/>
<path d="M53.6284 242.684L59.2697 246.718C60.2436 247.414 61.6217 246.741 61.6217 245.569V238.453C61.6216 242.607 56.4262 244.684 53.6284 242.684Z" fill="white" fill-opacity="0.75"/>
<path d="M35.9717 130.058C31.5693 127.576 28 129.61 28 134.597V171.4C28 176.392 31.5693 178.423 35.9717 175.943L68.697 157.495C73.101 155.012 73.101 150.989 68.697 148.506L35.9717 130.058Z" fill="white" fill-opacity="0.75"/>
</g>
<defs>
<clipPath id="clip0">
<rect width="1280" height="720" fill="white"/>
</clipPath>
</defs>
</svg>
