<svg width="78" height="69" viewBox="0 0 78 69" fill="none" xmlns="http://www.w3.org/2000/svg">
<path d="M59.5664 45.5003C59.5664 46.3001 59.5451 47.109 59.5039 47.9042L39 47.496L15.501 47.0283C15.6823 46.5088 15.8575 46.0213 16.022 45.5566C17.55 41.2727 18.2462 39.3166 18.2995 32.5769C18.3071 31.6004 18.9363 30.7366 19.8626 30.4274L22.6337 29.5042L19.6904 28.5231C18.8007 28.226 18.1822 27.4155 18.132 26.4786C17.7816 19.9827 16.9924 10.3058 15.83 2.62768C15.7234 1.93147 15.9458 1.2246 16.4303 0.714246C16.9147 0.202371 17.6079 -0.0566138 18.3087 0.0104174C25.7598 0.72948 32.8423 3.25991 39 7.32139C42.1398 9.39175 45.0374 11.8612 47.6211 14.6903C55.3236 23.1271 59.5664 34.0684 59.5664 45.5003Z" fill="#766E6E"/>
<path d="M59.5664 45.5003C59.5664 46.3001 59.5451 47.109 59.5039 47.9043L39 47.496V7.32141C42.1398 9.39176 45.0374 11.8613 47.6211 14.6903C55.3236 23.1271 59.5664 34.0684 59.5664 45.5003Z" fill="#5B5555"/>
<path d="M78 47.7854C78 49.0468 76.9762 50.0706 75.7148 50.0706H2.28516C1.02375 50.0706 0 49.0468 0 47.7854C0 46.524 1.02375 45.5002 2.28516 45.5002H75.7148C76.9762 45.5002 78 46.524 78 47.7854Z" fill="#57D9D4"/>
<path d="M78 47.7854C78 49.0468 76.9762 50.0706 75.7148 50.0706H39V45.5002H75.7148C76.9762 45.5002 78 46.524 78 47.7854Z" fill="#26BFBF"/>
<path d="M59.5664 56.926C59.5664 58.1874 58.5427 59.2112 57.2812 59.2112H20.7188C19.4573 59.2112 18.4336 58.1874 18.4336 56.926C18.4336 55.6646 19.4573 54.6409 20.7188 54.6409H57.2812C58.5427 54.6409 59.5664 55.6646 59.5664 56.926Z" fill="#57D9D4"/>
<path d="M59.5664 56.926C59.5664 58.1874 58.5427 59.2112 57.2812 59.2112H39V54.6409H57.2812C58.5427 54.6409 59.5664 55.6646 59.5664 56.926Z" fill="#26BFBF"/>
<path d="M29.8594 68.3518H2.28516C1.02314 68.3518 0 67.3287 0 66.0667C0 64.8046 1.02314 63.7815 2.28516 63.7815H29.8594C31.1214 63.7815 32.1445 64.8046 32.1445 66.0667C32.1445 67.3287 31.1214 68.3518 29.8594 68.3518Z" fill="#57D9D4"/>
<path d="M75.7148 68.3518H48.1406C46.8786 68.3518 45.8555 67.3287 45.8555 66.0667C45.8555 64.8046 46.8786 63.7815 48.1406 63.7815H75.7148C76.9769 63.7815 78 64.8046 78 66.0667C78 67.3287 76.9769 68.3518 75.7148 68.3518Z" fill="#26BFBF"/>
<path d="M39 68.3518C40.2621 68.3518 41.2852 67.3287 41.2852 66.0667C41.2852 64.8046 40.2621 63.7815 39 63.7815C37.7379 63.7815 36.7148 64.8046 36.7148 66.0667C36.7148 67.3287 37.7379 68.3518 39 68.3518Z" fill="#57D9D4"/>
<path d="M41.2852 66.0667C41.2852 67.3281 40.2614 68.3518 39 68.3518V63.7815C40.2614 63.7815 41.2852 64.8052 41.2852 66.0667Z" fill="#26BFBF"/>
</svg>
